<svg id="Layer_1" data-name="Layer 1" xmlns="http://www.w3.org/2000/svg" viewBox="0 0 468.6 218.33"><defs><style>.cls-1{fill:#1d88f5;}</style></defs><g id="zZEcJu.tif"><path class="cls-1" d="M815.2,485.1c-6.94,0-13.89.16-20.83-.06-4-.12-5.81,1.28-5.48,5.34.48,5.87-2.32,9-8,10.42-31.17,7.79-62.42,15.33-93.4,23.83-23.5,6.45-46.4,5.46-69.69-.91-29.41-8-59.06-15.15-88.61-22.64-7.24-1.83-8.71-3.1-8.84-10.3-.08-4.77-2.2-5.79-6.42-5.73-12.05.17-24.11.05-36.17,0-32.09-.08-56.2-23.43-57.12-55.47-.37-13.11-1.25-26.4,4.4-38.77,10-21.84,27.25-33.17,51.21-33.95,12.59-.42,25.21-.18,37.81-.05,4.26,0,6.65-1.16,6.29-5.9-.39-5.11,2.69-7.52,7.24-8.79,25.32-7.07,50.59-14.34,76-21.23,12.83-3.5,25.7-7.21,38.8-9.29,19.38-3.08,38,1.85,56.56,7.25,26.3,7.67,52.68,15,79.11,22.22,6.58,1.8,11.7,3.9,11.11,12.12-.26,3.57,2.89,3.57,5.54,3.58,12.24,0,24.48,0,36.72.06,32,.2,55.91,23,57.26,54.9.67,15.88,1,31.84-8.13,46.08-10.91,17-26.29,26.42-46.65,27.2-6.2.24-12.42,0-18.63,0ZM533,421.34c0,20.43.09,40.85-.07,61.27,0,4.46,1,6.69,5.92,7.9,30.33,7.41,60.55,15.21,90.78,23a98.49,98.49,0,0,0,49.85,0c30.24-7.77,60.47-15.54,90.78-23,4.37-1.08,6-2.8,6-7.3q-.16-61.54,0-123.08c0-4.6-1.49-6.75-6.09-8q-43.05-11.81-86-24.19c-17.4-5-34.9-6.57-52.45-1.8-31,8.44-61.87,17.46-92.86,26-4.62,1.27-6.09,3.41-6,8C533.07,380.5,533,400.92,533,421.34ZM520.17,421h.16c0-15.31-.09-30.62,0-45.93,0-4.45-1.6-6.11-6.13-6-12.78.22-25.57-.06-38.35.13-18.57.28-35.8,12.51-40.43,30.38-2.37,9.15-2.2,19.08-2.3,28.67-.24,24.74,19.09,44.16,43.8,44.42,12,.12,24.11-.17,36.16.11,5.18.11,7.2-1.61,7.12-6.9C520,450.91,520.17,436,520.17,421ZM815,368.31l-.07.83c-6.94,0-13.87.13-20.81-.05-3.69-.09-5.24,1.19-5.23,5q.12,46.45,0,92.9c0,4.29,1.81,5.75,5.95,5.7,12.77-.14,25.55.19,38.32-.09a43.78,43.78,0,0,0,42.66-42.25q.3-9.84,0-19.67c-.57-18.15-13.92-35.55-31.56-39.48C834.75,369.1,824.76,369.21,815,368.31Z" transform="translate(-420.31 -310.68)"/><path class="cls-1" d="M654,413.56q40,0,80,0c1.82,0,4.11-.47,5.36.43,2,1.43,4.39,3.71,4.62,5.85.19,1.74-2.18,4.36-4.07,5.56-1.65,1-4.22.85-6.38.85q-78.91.06-157.85,0c-2.35,0-5.12.34-6.94-.75-2-1.2-4.47-3.91-4.39-5.87s2.72-4.33,4.8-5.61c1.49-.92,3.91-.45,5.91-.45Q614.51,413.55,654,413.56Z" transform="translate(-420.31 -310.68)"/><path class="cls-1" d="M654,479.09l-38.29-6.37q-20.79-3.47-41.59-6.93c-6.89-1.15-10-3.68-9.54-7.65.51-4.37,4.33-6.11,11.45-4.92,24.49,4.1,48.89,8.76,73.48,12.15,7.69,1.06,15.9-.78,23.76-2,20.37-3.2,40.69-6.81,61-10.22,1.61-.27,3.63-.94,4.81-.28,2.18,1.22,4.91,3,5.44,5.08.45,1.72-1.61,4.44-3.17,6.17-.93,1-3,1.18-4.61,1.45q-39.71,6.63-79.41,13.17C656.45,478.87,655.54,478.92,654,479.09Z" transform="translate(-420.31 -310.68)"/><path class="cls-1" d="M739.8,387.27c-10.94-1.79-20.13-3.25-29.31-4.8-16.2-2.73-32.31-6.41-48.62-7.93-10-.92-20.28.94-30.31,2.44-19.49,2.92-38.89,6.47-58.33,9.75-4.15.7-7.34-.52-8.55-4.79-1-3.61,1.77-6.85,6.66-7.67,19.43-3.27,38.89-6.43,58.34-9.65,4.14-.68,8.36-1.1,12.4-2.17,13.87-3.68,27.18.68,40.61,2.68,18.23,2.72,36.38,6,54.57,9,4.16.68,8,2.4,7.36,7C744.27,383.62,741.1,385.71,739.8,387.27Z" transform="translate(-420.31 -310.68)"/></g></svg>