<svg id="Layer_1" data-name="Layer 1" xmlns="http://www.w3.org/2000/svg" viewBox="0 0 480.92 391.84"><defs><style>.cls-1{fill:#fff;}.cls-2{fill:#1d88f5;}</style></defs><g id="Cp8qUh.tif"><path class="cls-1" d="M627.51,489.3v.08h-81c-9.18,0-11.2,2.05-11.22,11.36,0,10.7,0,21.41,0,32.11,0,3.26-.85,5.54-4.06,7.15-4.74,2.4-9.18,5.39-13.74,8.13a9.25,9.25,0,0,0-5,8.35c0,8,0,16.06,0,24.08,0,3.84,1.93,6.48,5,8.35q9.3,5.63,18.72,11.06c3.71,2.13,7.42,3.45,11.67.84,6.93-4.25,14.27-7.87,21-12.45,2.15-1.47,3.79-5.07,4-7.81.53-8,.14-16,.22-24.07a8.89,8.89,0,0,0-4.83-8.38c-4.6-2.67-9.06-5.6-13.75-8.11a7.15,7.15,0,0,1-4.14-7.18c.11-5.21,0-10.41.07-15.62.27-13.43-2.59-12.4,12.21-12.42q57,0,114,0c11.28,0,22.56.06,33.84,0,3,0,4.84.86,4.81,4.26-.08,8.33,0,16.65-.07,25,0,2.92-1.27,4.83-4.07,6.24-4.61,2.33-8.87,5.35-13.41,7.84a8.52,8.52,0,0,0-4.61,8c-.07,8.18,0,16.35,0,24.53A9.09,9.09,0,0,0,698,589c6.27,3.64,12.55,7.27,18.68,11.11,4.58,2.87,8.88,2.45,13.28-.22,6-3.6,11.87-7.25,17.94-10.64a9.25,9.25,0,0,0,5.16-8.67c0-8,.08-16.05,0-24.08,0-3.82-1.45-6.8-5-8.75-4.28-2.31-8.2-5.38-12.6-7.41-3.46-1.6-4.52-3.92-4.5-7.32,0-6.69,0-13.38,0-20.07,0-8.19,0-8.21,8-8.21H888.07c1.18,0,2.37,0,3.56.05,2.93,0,4.2,1.4,4.15,4.44-.11,8,.24,16.07-.2,24.08-.12,2.2-1.9,4.91-3.74,6.31-3.37,2.58-7.33,4.41-11.09,6.46-5.23,2.85-8.31,6.6-7.78,13.16a206.34,206.34,0,0,1,.1,21,9.22,9.22,0,0,0,5,8.75c6.23,3.72,12.51,7.33,18.68,11.13,4.72,2.91,9.14,2.49,13.72-.37q8.64-5.41,17.52-10.47c3.69-2.09,5.73-5,5.7-9.29q-.07-11.6,0-23.19a9.34,9.34,0,0,0-4.73-8.5c-4.4-2.74-8.69-5.74-13.34-7.94-3.74-1.77-4.82-4.26-4.77-8.08.13-11.3.12-22.6,0-33.9-.05-6.14-2.53-8.6-8.66-8.95-2.07-.12-4.15-.06-6.23-.06q-79.49,0-159,0c-5.25,0-6-.62-6-5.84-.09-8.77,0-17.55-.11-26.32-.07-3.89,1.68-5,5.34-5.34,13.27-1.25,26.56-2.49,39.75-4.39,14.92-2.15,29.18-6.71,42-14.85,11.8-7.51,21.31-17,21.36-32.25q.23-74.06,0-148.09A26.26,26.26,0,0,0,836.87,242c-3.22-7.28-9.6-11.55-16.27-15.23-15.07-8.31-31.73-11.76-48.47-13.63-38.66-4.33-77.25-4-115.54,4.33-12,2.59-23.47,6.13-34.07,12.28-9.94,5.78-16,13.47-15.92,26.09.42,47.13.27,94.27.07,141.4,0,11.17,4.38,19.85,12.51,26.88,15.32,13.25,34,19.12,53.31,22.68,12.36,2.28,25,3.17,37.51,4.46,3.7.38,5.25,1.91,5.21,5.63-.1,8.92-.06,17.84,0,26.76,0,4.07-1.44,5.75-5.81,5.73C682.13,489.22,654.82,489.3,627.51,489.3ZM890.35,339.23c9.94,0,19.87.13,29.81-.06,4.12-.08,5.44,1.55,5.38,5.54-.16,11.43.13,22.88-.22,34.31a9.62,9.62,0,0,1-3.57,6.42c-3.63,2.73-7.85,4.69-11.88,6.87-4.56,2.46-7.11,6.05-7,11.4.08,7,.1,14,0,21-.08,5,2.34,8.37,6.52,10.77,6.16,3.53,12.28,7.13,18.41,10.69a10.63,10.63,0,0,0,11.39-.11q9.21-5.34,18.39-10.71c3.71-2.15,6-5,5.81-9.67-.22-5.64-.63-11.37.1-16.92,1.25-9.37-2.47-15.32-10.84-18.87-.82-.34-1.61-.74-2.43-1.1-6.65-2.95-10.07-7.14-9.51-15.35.9-13.16.31-26.43.2-39.65-.06-7.67-2.92-10.42-10.63-10.43-23.44,0-46.87,0-70.3-.08-4.1,0-5.64,1.86-5.65,5.63,0,1.18,0,2.37,0,3.56.07,5.75,1.09,6.8,6.72,6.81ZM550.74,323.31h-33.4c-9.7,0-12.06,2.36-12.09,12.15,0,14.28-.09,28.55,0,42.82a7.71,7.71,0,0,1-4,7.36q-5.93,3.47-12,6.75c-4.41,2.38-6.82,5.63-6.57,11,.35,7.41.23,14.86,0,22.29-.14,4.47,2,7.3,5.53,9.39,6.36,3.75,12.56,7.89,19.24,11a13.46,13.46,0,0,0,10.05.26c6.83-3.1,13.16-7.34,19.64-11.19,4-2.37,6.18-5.81,6.11-10.62-.09-6.83-.16-13.67,0-20.51a12,12,0,0,0-6.76-11.59c-3.63-2-7.11-4.28-10.83-6.07s-5.23-4.26-5.15-8.41c.22-10.85.08-21.7.11-32.55,0-5.8.31-6.1,6-6.11,19.74,0,39.48-.08,59.22,0,4.2,0,6-1.77,6-5.81,0-1.19,0-2.38,0-3.57,0-5.43-1.13-6.6-6.48-6.62C573.89,323.27,562.31,323.3,550.74,323.31Z" transform="translate(-482.75 -210.42)"/><path class="cls-2" d="M627.51,489.3c27.31,0,54.62-.08,81.93.09,4.37,0,5.85-1.66,5.81-5.73-.1-8.92-.14-17.84,0-26.76,0-3.72-1.51-5.25-5.21-5.63-12.53-1.29-25.15-2.18-37.51-4.46-19.35-3.56-38-9.43-53.31-22.68-8.13-7-12.56-15.71-12.51-26.88.2-47.13.35-94.27-.07-141.4-.11-12.62,6-20.31,15.92-26.09,10.6-6.15,22.1-9.69,34.07-12.28,38.29-8.28,76.88-8.66,115.54-4.33,16.74,1.87,33.4,5.32,48.47,13.63,6.67,3.68,13,7.95,16.27,15.23a26.26,26.26,0,0,1,2.39,10.23q.21,74,0,148.09c0,15.23-9.56,24.74-21.36,32.25-12.8,8.14-27.06,12.7-42,14.85-13.19,1.9-26.48,3.14-39.75,4.39-3.66.35-5.41,1.45-5.34,5.34.16,8.77,0,17.55.11,26.32,0,5.22.77,5.83,6,5.84q79.49,0,159,0c2.08,0,4.16-.06,6.23.06,6.13.35,8.61,2.81,8.66,8.95.09,11.3.1,22.6,0,33.9-.05,3.82,1,6.31,4.77,8.08,4.65,2.2,8.94,5.2,13.34,7.94a9.34,9.34,0,0,1,4.73,8.5q-.09,11.6,0,23.19c0,4.33-2,7.2-5.7,9.29q-8.87,5.06-17.52,10.47c-4.58,2.86-9,3.28-13.72.37-6.17-3.8-12.45-7.41-18.68-11.13a9.22,9.22,0,0,1-5-8.75,206.34,206.34,0,0,0-.1-21c-.53-6.56,2.55-10.31,7.78-13.16,3.76-2.05,7.72-3.88,11.09-6.46,1.84-1.4,3.62-4.11,3.74-6.31.44-8,.09-16.05.2-24.08.05-3-1.22-4.41-4.15-4.44-1.19,0-2.38-.05-3.56-.05H738.9c-8,0-8,0-8,8.21,0,6.69,0,13.38,0,20.07,0,3.4,1,5.72,4.5,7.32,4.4,2,8.32,5.1,12.6,7.41,3.6,2,5,4.93,5,8.75.06,8,0,16.06,0,24.08a9.25,9.25,0,0,1-5.16,8.67c-6.07,3.39-12,7-17.94,10.64-4.4,2.67-8.7,3.09-13.28.22-6.13-3.84-12.41-7.47-18.68-11.11a9.09,9.09,0,0,1-4.91-8.38c0-8.18,0-16.35,0-24.53a8.52,8.52,0,0,1,4.61-8c4.54-2.49,8.8-5.51,13.41-7.84,2.8-1.41,4-3.32,4.07-6.24,0-8.33,0-16.65.07-25,0-3.4-1.79-4.27-4.81-4.26-11.28.06-22.56,0-33.84,0q-57,0-114,0c-14.8,0-11.94-1-12.21,12.42-.11,5.21,0,10.41-.07,15.62a7.15,7.15,0,0,0,4.14,7.18c4.69,2.51,9.15,5.44,13.75,8.11a8.89,8.89,0,0,1,4.83,8.38c-.08,8,.31,16.08-.22,24.07-.18,2.74-1.82,6.34-4,7.81-6.7,4.58-14,8.2-21,12.45-4.25,2.61-8,1.29-11.67-.84q-9.42-5.43-18.72-11.06c-3.08-1.87-5-4.51-5-8.35,0-8,0-16,0-24.08a9.25,9.25,0,0,1,5-8.35c4.56-2.74,9-5.73,13.74-8.13,3.21-1.61,4.09-3.89,4.06-7.15-.08-10.7-.07-21.41,0-32.11,0-9.31,2-11.35,11.22-11.36h81ZM727,279c11.38-.79,22.76-1.69,34.14-2.36,15.79-.93,31.23-3.8,45.86-9.71,5.58-2.25,10.53-6.38,15.27-10.25a5.72,5.72,0,0,0,.15-8.79,53.22,53.22,0,0,0-12.37-9c-15-7.35-31.39-10-47.72-11.23-35.41-2.65-70.85-2.71-105.73,5.5-10.22,2.4-20.24,5.61-29.05,11.66-7,4.8-7.25,9.16-.47,14.26,10.45,7.88,22.91,11,35.33,13.54C683.66,276.89,705.27,278.31,727,279Zm96.51,97.61c-2.81,1.72-4.65,2.88-6.53,4-18.86,11.06-39.72,15.29-61.06,17.25-27.29,2.5-54.62,2.08-81.55-3.3-11.53-2.31-22.77-6.33-33.89-10.27-6-2.14-11.56-5.76-17.72-8.92a15.09,15.09,0,0,0-.75,3.23c-.06,7-.44,14,.18,20.95.29,3.31,1.77,7.24,4.08,9.5a65.08,65.08,0,0,0,15.06,11.47c17.36,9,36.35,12.83,55.56,14.44,29.93,2.5,60,3,89.2-5.63a114.39,114.39,0,0,0,26.1-11.81c8.4-5,13.27-12.95,12.09-23.58-.42-3.82,0-7.72-.09-11.58C824.15,380.74,823.82,379.19,823.5,376.57Zm-.09-52.31c-1.91.88-3,1.34-4,1.86-7,3.48-13.71,7.75-21,10.29A174.71,174.71,0,0,1,750,345.68c-24,1.28-48.09,1.2-71.9-3-14.89-2.64-29.5-6.46-43-13.49-4-2.08-7.92-4.32-12.46-6.8a35.3,35.3,0,0,0-.64,4.29c-.08,4.76.35,9.56-.14,14.27-1.06,10,3.88,16.68,11.5,22,14.21,9.91,30.64,13.79,47.23,17.1,20.09,4,40.45,4.05,60.78,3.33,22.35-.79,44.31-4,64.48-14.54,11.39-5.94,19.94-14,18.42-28.54-.37-3.53,0-7.14-.1-10.7A53.46,53.46,0,0,0,823.41,324.26Zm-.25-47.67c-31.84,15.55-65.79,17.3-100,17.06s-68.23-3.42-101.2-18.62c0,6.34.09,11.61,0,16.87-.12,5.43,2.13,9.76,5.75,13.54,6.2,6.48,14.09,10.37,22.22,13.51,19.11,7.4,39.19,10.6,59.51,11.64,17.33.89,34.66.82,52-1.7,17-2.47,33.41-6.22,48.44-15C822.65,306.4,828.26,291.58,823.16,276.59Zm-264.41,292c-1-3.29-.94-7.64-3.09-9.61-3.57-3.25-8.51-6.76-12.93-6.83-4.21-.07-8.92,3.6-12.55,6.65-1.79,1.49-2.26,5.32-2.22,8.07,0,3.65,0,8.41,2.14,10.68,3.28,3.47,8.41,7.25,12.69,7.17,4.5-.09,9.34-4.06,13.18-7.35C557.85,575.78,557.8,571.9,558.75,568.61Zm328.62-.47c1,3.46.86,7.5,2.81,9.24,3.76,3.34,8.64,7.29,13.14,7.39,4.25.09,9.12-3.88,12.71-7.17,1.89-1.74,2.22-5.85,2.18-8.88-.05-3.35-.26-7.78-2.31-9.79-3.34-3.26-8.26-6.8-12.46-6.74-4.4.06-9.27,3.63-12.91,6.83C888.43,560.86,888.36,565,887.37,568.14ZM738.1,569.75c-.9-4.85,1.08-9.09-3.29-12-7.23-4.85-14.27-8.43-21.83-.75-.2.2-.65.18-.79.39-1.29,2-3.63,3.95-3.63,5.93,0,16.52-2.7,12.5,11.69,20.77,1.07.61,2.8,1.35,3.64.91,4.29-2.25,8.91-4.31,12.36-7.56C738.05,575.71,737.69,571.71,738.1,569.75Z" transform="translate(-482.75 -210.42)"/><path class="cls-2" d="M890.35,339.23H861c-5.63,0-6.65-1.06-6.72-6.81,0-1.19,0-2.38,0-3.56,0-3.77,1.55-5.65,5.65-5.63,23.43.11,46.86,0,70.3.08,7.71,0,10.57,2.76,10.63,10.43.11,13.22.7,26.49-.2,39.65-.56,8.21,2.86,12.4,9.51,15.35.82.36,1.61.76,2.43,1.1,8.37,3.55,12.09,9.5,10.84,18.87-.73,5.55-.32,11.28-.1,16.92.18,4.64-2.1,7.52-5.81,9.67q-9.19,5.35-18.39,10.71a10.63,10.63,0,0,1-11.39.11c-6.13-3.56-12.25-7.16-18.41-10.69-4.18-2.4-6.6-5.73-6.52-10.77.12-7,.1-14,0-21-.07-5.35,2.48-8.94,7-11.4,4-2.18,8.25-4.14,11.88-6.87a9.62,9.62,0,0,0,3.57-6.42c.35-11.43.06-22.88.22-34.31.06-4-1.26-5.62-5.38-5.54C910.22,339.36,900.29,339.23,890.35,339.23Zm58.46,74.35c-.72-2.65-.72-6.72-2.74-9.05-2.48-2.86-6.52-4.52-10.12-6.18a7.44,7.44,0,0,0-5.47,0c-8.09,3.46-14.25,8.38-11.86,18.62a1.36,1.36,0,0,1,0,.45c-.48,3.88,1.18,6.6,4.62,8.21s7.47,4.9,10.68,4.33c4.66-.83,9.27-3.94,13-7.14C948.6,421.38,948.13,417.37,948.81,413.58Z" transform="translate(-482.75 -210.42)"/><path class="cls-2" d="M550.74,323.3c11.57,0,23.15,0,34.72,0,5.35,0,6.45,1.19,6.48,6.62,0,1.19,0,2.38,0,3.57,0,4-1.81,5.84-6,5.81-19.74-.11-39.48,0-59.22,0-5.69,0-6,.31-6,6.11,0,10.85.11,21.7-.11,32.55-.08,4.15,1.49,6.64,5.15,8.41s7.2,4.07,10.83,6.07A12,12,0,0,1,543.31,404c-.12,6.84,0,13.68,0,20.51.07,4.81-2.13,8.25-6.11,10.62-6.48,3.85-12.81,8.09-19.64,11.19a13.46,13.46,0,0,1-10.05-.26c-6.68-3.08-12.88-7.22-19.24-11-3.54-2.09-5.67-4.92-5.53-9.39.22-7.43.34-14.88,0-22.29-.25-5.4,2.16-8.65,6.57-11q6-3.27,12-6.75a7.71,7.71,0,0,0,4-7.36c-.13-14.27-.07-28.54,0-42.82,0-9.79,2.39-12.14,12.09-12.15Zm-22.61,89.92c-.77-2.61-.89-6.61-2.92-9-2.37-2.76-6.27-4.37-9.75-5.94a7.93,7.93,0,0,0-5.47.1c-2.32.85-4.23,2.75-6.53,3.69-4.8,2-5.36,5.64-5.66,10.33-.47,7.29,1,12.79,8.58,15.24,2.48.79,5.33,3.22,7.19,2.56A36.5,36.5,0,0,0,526.11,423C527.9,421.34,527.41,417.22,528.13,413.22Z" transform="translate(-482.75 -210.42)"/><path class="cls-1" d="M727,279c-21.72-.65-43.33-2.07-64.59-6.38-12.42-2.52-24.88-5.66-35.33-13.54-6.78-5.1-6.53-9.46.47-14.26,8.81-6.05,18.83-9.26,29.05-11.66,34.88-8.21,70.32-8.15,105.73-5.5,16.33,1.22,32.73,3.88,47.72,11.23a53.22,53.22,0,0,1,12.37,9,5.72,5.72,0,0,1-.15,8.79c-4.74,3.87-9.69,8-15.27,10.25-14.63,5.91-30.07,8.78-45.86,9.71C749.75,277.27,738.37,278.17,727,279Z" transform="translate(-482.75 -210.42)"/><path class="cls-1" d="M823.5,376.57c.32,2.62.65,4.17.68,5.73.08,3.86-.33,7.76.09,11.58,1.18,10.63-3.69,18.54-12.09,23.58a114.39,114.39,0,0,1-26.1,11.81c-29.22,8.61-59.27,8.13-89.2,5.63-19.21-1.61-38.2-5.45-55.56-14.44A65.08,65.08,0,0,1,626.26,409c-2.31-2.26-3.79-6.19-4.08-9.5-.62-6.94-.24-14-.18-20.95a15.09,15.09,0,0,1,.75-3.23c6.16,3.16,11.68,6.78,17.72,8.92,11.12,3.94,22.36,8,33.89,10.27,26.93,5.38,54.26,5.8,81.55,3.3,21.34-2,42.2-6.19,61.06-17.25C818.85,379.45,820.69,378.29,823.5,376.57Z" transform="translate(-482.75 -210.42)"/><path class="cls-1" d="M823.41,324.26a53.46,53.46,0,0,1,.75,5.31c.1,3.56-.27,7.17.1,10.7,1.52,14.54-7,22.6-18.42,28.54-20.17,10.51-42.13,13.75-64.48,14.54-20.33.72-40.69.68-60.78-3.33-16.59-3.31-33-7.19-47.23-17.1-7.62-5.31-12.56-12-11.5-22,.49-4.71.06-9.51.14-14.27a35.3,35.3,0,0,1,.64-4.29c4.54,2.48,8.46,4.72,12.46,6.8,13.55,7,28.16,10.85,43,13.49,23.81,4.22,47.85,4.3,71.9,3a174.71,174.71,0,0,0,48.31-9.27c7.31-2.54,14-6.81,21-10.29C820.42,325.6,821.5,325.14,823.41,324.26Z" transform="translate(-482.75 -210.42)"/><path class="cls-1" d="M823.16,276.59c5.1,15-.51,29.81-13.36,37.3-15,8.78-31.43,12.53-48.44,15-17.31,2.52-34.64,2.59-52,1.7-20.32-1-40.4-4.24-59.51-11.64-8.13-3.14-16-7-22.22-13.51-3.62-3.78-5.87-8.11-5.75-13.54.12-5.26,0-10.53,0-16.87,33,15.2,66.85,18.39,101.2,18.62S791.32,292.14,823.16,276.59Z" transform="translate(-482.75 -210.42)"/><path class="cls-1" d="M558.75,568.61c-1,3.29-.9,7.17-2.78,8.78-3.84,3.29-8.68,7.26-13.18,7.35-4.28.08-9.41-3.7-12.69-7.17-2.13-2.27-2.09-7-2.14-10.68,0-2.75.43-6.58,2.22-8.07,3.63-3.05,8.34-6.72,12.55-6.65,4.42.07,9.36,3.58,12.93,6.83C557.81,561,557.8,565.32,558.75,568.61Z" transform="translate(-482.75 -210.42)"/><path class="cls-1" d="M887.37,568.14c1-3.13,1.06-7.28,3.16-9.12,3.64-3.2,8.51-6.77,12.91-6.83,4.2-.06,9.12,3.48,12.46,6.74,2.05,2,2.26,6.44,2.31,9.79,0,3-.29,7.14-2.18,8.88-3.59,3.29-8.46,7.26-12.71,7.17-4.5-.1-9.38-4-13.14-7.39C888.23,575.64,888.32,571.6,887.37,568.14Z" transform="translate(-482.75 -210.42)"/><path class="cls-1" d="M738.1,569.75c-.41,2-.05,6-1.85,7.66-3.45,3.25-8.07,5.31-12.36,7.56-.84.44-2.57-.3-3.64-.91-14.39-8.27-11.65-4.25-11.69-20.77,0-2,2.34-4,3.63-5.93.14-.21.59-.19.79-.39,7.56-7.68,14.6-4.1,21.83.75C739.18,560.66,737.2,564.9,738.1,569.75Z" transform="translate(-482.75 -210.42)"/><path class="cls-1" d="M948.81,413.58c-.68,3.79-.21,7.8-1.91,9.27-3.71,3.2-8.32,6.31-13,7.14-3.21.57-7.14-2.66-10.68-4.33s-5.1-4.33-4.62-8.21a1.36,1.36,0,0,0,0-.45c-2.39-10.24,3.77-15.16,11.86-18.62a7.44,7.44,0,0,1,5.47,0c3.6,1.66,7.64,3.32,10.12,6.18C948.09,406.86,948.09,410.93,948.81,413.58Z" transform="translate(-482.75 -210.42)"/><path class="cls-1" d="M528.13,413.22c-.72,4-.23,8.12-2,9.78a36.5,36.5,0,0,1-12.54,7.22c-1.86.66-4.71-1.77-7.19-2.56-7.62-2.45-9.05-8-8.58-15.24.3-4.69.86-8.35,5.66-10.33,2.3-.94,4.21-2.84,6.53-3.69a7.93,7.93,0,0,1,5.47-.1c3.48,1.57,7.38,3.18,9.75,5.94C527.24,406.61,527.36,410.61,528.13,413.22Z" transform="translate(-482.75 -210.42)"/></g></svg>