<svg id="Layer_1" data-name="Layer 1" xmlns="http://www.w3.org/2000/svg" viewBox="0 0 1839.18 343.65"><defs><style>.cls-1{fill:#0096fa;}</style></defs><title>Logo Blue - resized logo</title><path class="cls-1" d="M2081.88,457.56A96.35,96.35,0,0,1,2047,468.14a313.26,313.26,0,0,1-32.52,2q-28.2,0-49.36-15.28T1944,404.28q0-32.91,19.2-47t49-18.81a46.25,46.25,0,0,0,9.41-1.17,124.16,124.16,0,0,1,12.53-2q34.49-4.71,34.48-20.38,0-11.74-12.14-15.28a80.73,80.73,0,0,0-22.34-3.52,57.27,57.27,0,0,0-19.59,3.13c-5.75,2.1-5.93,4.24-11.23,7.66-11,7.11-54,7-54,7,2.08-16.19,9.58-32.4,22.12-42.86q21.15-18,60.33-18,43.88,0,65.82,14.89,22.72,15.68,22.73,43.88v71.3q0,31.35-11.37,49T2081.88,457.56Zm-12.54-96.38q-11,5.51-30.56,10.19l-18,3.92q-14.1,3.93-20.37,10.19-5.49,8.63-5.48,17.23,0,11.76,7,18.81,7.05,6.28,20.37,6.27,21.93,0,34.48-12.54t12.53-34.48V361.19ZM1824.61,470.1V360.4q0-30.56,9-51.32t24.69-33.31a97.1,97.1,0,0,1,34.87-17.24,155.34,155.34,0,0,1,41.13-5.48h7.84V291a17.7,17.7,0,0,1-17.71,17.7h-.31q-22.74,0-33.7,11t-11,34.48v80.52A35.45,35.45,0,0,1,1844,470.1Zm-52-68.17,39.57-3.92c-5.75,21.94-17.11,42.59-33.3,54.07q-24.3,18-61.12,18-44.65,0-69.73-29Q1623,412.9,1623,360.4q0-50.13,24.29-78.36,25.07-29,69.74-29,47,0,72.87,28.21,25.06,29,25.08,80.71v8.62a13.39,13.39,0,0,1-.79,5.48H1678.61q.78,24.3,11.76,36.05,10.17,12.54,30.56,12.53,13.3,0,22.72-5.48a10.93,10.93,0,0,0,4.31-2.74l4.31-4.31c.51-1.57,2.47-3.65,5.88-6.27s8.22-3.92,14.49-3.92Zm-94-61.12h79.93q-1.57-21.15-11-31.34-10.2-11-29-11-17.25,0-28.21,11T1678.61,340.81ZM1437.27,526.73h-17.74V347.29q0-55.65,32.12-75.22a131.44,131.44,0,0,1,69.74-19.59,123.53,123.53,0,0,1,40,6.66q19.61,6.64,31.34,21.55,22.74,29,22.73,79.14,0,49.37-22.73,79.14-23.51,30.55-60.33,30.56-19.58,0-34.48-7.84a74.57,74.57,0,0,1-25.07-24.29v53.79a35.54,35.54,0,0,1-35.54,35.54Zm124.87-164.55q0-31.35-11.76-47.8t-33.69-16.45q-21.17,0-32.91,16.45-11,16.46-11,47.8,0,28.2,11.75,44.66,12.54,15.68,33.7,15.67,20.37,0,32.12-16.45Q1562.14,390.37,1562.14,362.18ZM1225.91,398s40.55,0,51,8.22c5.16,4.06,6.69,9.29,14,14.51q11.76,7.83,31.35,7.83,14.1,0,24.29-5.48,9.39-5.47,9.4-14.89,0-14.1-32.91-21.16-14.1-2.35-21.16-4.7-41.54-10.17-55.63-24.29-15.69-14.1-15.67-37.61,0-29.78,22.72-49.37,23.51-18,61.12-18,40.72,0,65,18c15.15,13.07,23.89,33,24.94,53.87L1370.08,322q-14.89,0-22.72-13.32-3.15-3.12-6.27-6.26-9.4-7.07-25.86-7.06-15.68,0-23.51,4.71-7,4.69-7,14.1,0,11.85,36.35,20.19c2.62.6,5.23,1.28,7.81,2.05q2.39.72,4.82,1.27c1.7.38,28.31,8.35,46.74,16.08a49.64,49.64,0,0,1,30.44,45.35v.47q0,34.49-25.08,53.28-23.51,17.25-70.52,17.24-44.65,0-66.6-18-22.74-18-22.73-52.5V398Zm-45.18,3.92,39.18-3.92c-5.75,21.94-16.72,42.59-32.91,54.07q-24.3,18-61.12,18-44.66,0-69.74-29-25.08-28.22-25.07-80.71,0-50.13,24.29-78.36,25.07-29,69.74-29,47,0,72.87,28.21c9.41,11.5,16.06,28.19,20.25,43.33,0,0-42,1.66-53.65-5.54-5-3.06-6.3-7-8.91-9.58q-10.2-11-29-11-17.25,0-28.21,11-14.12,15.67-14.11,51.71t14.11,50.94q10.17,12.54,30.56,12.53,13.31,0,22.72-5.48a10.93,10.93,0,0,0,4.31-2.74l4.31-4.31a34.39,34.39,0,0,1,6.26-6.27q4.71-3.92,14.11-3.92ZM863.66,447.38q-16.45-14.11-23.51-38a174.82,174.82,0,0,1-7-49.75A157.44,157.44,0,0,1,839,317.3q5.87-21.15,18.41-35.26,20.37-23.51,52.5-27.81t58,5.09q29.77,11.74,43.88,40.75,13.32,25.85,13.33,60.33,0,25.08-5.49,43.1t-14.1,30.56q-18.81,25.86-47.8,32.12a106.51,106.51,0,0,1-52.11,1.18q-26.26-5.88-41.92-20Zm37.61-137.91q-16.46,18-14.89,53.67T899.7,412.9q4.71,6.28,16.46,10.58a37.38,37.38,0,0,0,23.9.78q12.13-3.52,21.55-17.63t10.18-45.45q0-28.2-9-42.31t-20.76-18a38.09,38.09,0,0,0-23.51-.39q-11.76,3.53-17.24,9ZM773,195.85H791a35.38,35.38,0,0,1,35.37,35.38V375.29q0,55.65-32.12,75.22a131.47,131.47,0,0,1-69.74,19.59,123.53,123.53,0,0,1-40-6.66q-19.61-6.65-31.35-21.55-22.73-29-22.72-79.14,0-49.37,22.72-79.14,23.51-30.56,60.34-30.56,19.57,0,34.47,7.84A74.42,74.42,0,0,1,773,285.18V195.85ZM683.71,360.4q0,31.35,11.75,47.8t33.7,16.45q21.15,0,32.91-16.45,11-16.45,11-47.8,0-28.2-11.76-44.66-12.54-15.67-33.69-15.67-20.39,0-32.13,16.45-11.75,15.69-11.75,43.88Zm-287.61,109a115,115,0,1,1,0-230h66.31v48.68H396.1a66.32,66.32,0,1,0,66.31,66.32V288h48.68v66.32a115.13,115.13,0,0,1-115,115Zm115-205.65h56.27m0,0A24.34,24.34,0,0,0,543,239.37H511.09V288H543A24.33,24.33,0,0,0,567.37,263.71Zm-80.62-24.35V183.08m24.34,24.35a24.34,24.34,0,1,0-48.68,0v31.94h48.68Z" transform="translate(-281.1 -183.08)"/></svg>