<svg xmlns="http://www.w3.org/2000/svg" xmlns:xlink="http://www.w3.org/1999/xlink" width="1719" height="675" viewBox="0 0 1719 675">
  <defs>
    <filter id="Rectangle_783" x="0" y="131" width="413" height="287" filterUnits="userSpaceOnUse">
      <feOffset dy="10" input="SourceAlpha"/>
      <feGaussianBlur stdDeviation="5" result="blur"/>
      <feFlood flood-color="#d9d9d9"/>
      <feComposite operator="in" in2="blur"/>
      <feComposite in="SourceGraphic"/>
    </filter>
    <filter id="Rectangle_784" x="711" y="0" width="1008" height="321" filterUnits="userSpaceOnUse">
      <feOffset dy="10" input="SourceAlpha"/>
      <feGaussianBlur stdDeviation="5" result="blur-2"/>
      <feFlood flood-color="#d9d9d9"/>
      <feComposite operator="in" in2="blur-2"/>
      <feComposite in="SourceGraphic"/>
    </filter>
    <filter id="Rectangle_785" x="712" y="342" width="534" height="333" filterUnits="userSpaceOnUse">
      <feOffset dy="10" input="SourceAlpha"/>
      <feGaussianBlur stdDeviation="5" result="blur-3"/>
      <feFlood flood-color="#d9d9d9"/>
      <feComposite operator="in" in2="blur-3"/>
      <feComposite in="SourceGraphic"/>
    </filter>
    <filter id="Rectangle_786" x="1455" y="54" width="218" height="218" filterUnits="userSpaceOnUse">
      <feOffset dy="10" input="SourceAlpha"/>
      <feGaussianBlur stdDeviation="5" result="blur-4"/>
      <feFlood flood-color="#d9d9d9"/>
      <feComposite operator="in" in2="blur-4"/>
      <feComposite in="SourceGraphic"/>
    </filter>
    <filter id="Path_129" x="1215.216" y="164.471" width="259.197" height="305.964" filterUnits="userSpaceOnUse">
      <feOffset dy="10" input="SourceAlpha"/>
      <feGaussianBlur stdDeviation="5" result="blur-5"/>
      <feFlood flood-opacity="0.161"/>
      <feComposite operator="in" in2="blur-5"/>
      <feComposite in="SourceGraphic"/>
    </filter>
    <filter id="Path_130" x="1074" y="118" width="314.663" height="65.534" filterUnits="userSpaceOnUse">
      <feOffset dy="3" input="SourceAlpha"/>
      <feGaussianBlur stdDeviation="3" result="blur-6"/>
      <feFlood flood-opacity="0.161"/>
      <feComposite operator="in" in2="blur-6"/>
      <feComposite in="SourceGraphic"/>
    </filter>
    <filter id="Line_280" x="1430.5" y="162.971" width="35.615" height="21" filterUnits="userSpaceOnUse">
      <feOffset dy="3" input="SourceAlpha"/>
      <feGaussianBlur stdDeviation="3" result="blur-7"/>
      <feFlood flood-opacity="0.161"/>
      <feComposite operator="in" in2="blur-7"/>
      <feComposite in="SourceGraphic"/>
    </filter>
    <filter id="Path_112" x="1446.376" y="156.927" width="28.749" height="33.08" filterUnits="userSpaceOnUse">
      <feOffset dy="3" input="SourceAlpha"/>
      <feGaussianBlur stdDeviation="3" result="blur-8"/>
      <feFlood flood-opacity="0.161"/>
      <feComposite operator="in" in2="blur-8"/>
      <feComposite in="SourceGraphic"/>
    </filter>
    <filter id="Path_234" x="741.505" y="17.523" width="84.995" height="82.931" filterUnits="userSpaceOnUse">
      <feOffset dy="3" input="SourceAlpha"/>
      <feGaussianBlur stdDeviation="3" result="blur-9"/>
      <feFlood flood-opacity="0.161"/>
      <feComposite operator="in" in2="blur-9"/>
      <feComposite in="SourceGraphic"/>
    </filter>
    <filter id="Path_241" x="767.558" y="18.961" width="32.896" height="32.867" filterUnits="userSpaceOnUse">
      <feOffset dy="3" input="SourceAlpha"/>
      <feGaussianBlur stdDeviation="3" result="blur-10"/>
      <feFlood flood-opacity="0.161"/>
      <feComposite operator="in" in2="blur-10"/>
      <feComposite in="SourceGraphic"/>
    </filter>
    <filter id="Path_242" x="742.898" y="40.193" width="34.993" height="20.421" filterUnits="userSpaceOnUse">
      <feOffset dy="3" input="SourceAlpha"/>
      <feGaussianBlur stdDeviation="3" result="blur-11"/>
      <feFlood flood-opacity="0.161"/>
      <feComposite operator="in" in2="blur-11"/>
      <feComposite in="SourceGraphic"/>
    </filter>
    <filter id="Path_243" x="790.12" y="40.188" width="34.99" height="20.412" filterUnits="userSpaceOnUse">
      <feOffset dy="3" input="SourceAlpha"/>
      <feGaussianBlur stdDeviation="3" result="blur-12"/>
      <feFlood flood-opacity="0.161"/>
      <feComposite operator="in" in2="blur-12"/>
      <feComposite in="SourceGraphic"/>
    </filter>
    <filter id="Path_244" x="790.118" y="59.568" width="34.989" height="20.378" filterUnits="userSpaceOnUse">
      <feOffset dy="3" input="SourceAlpha"/>
      <feGaussianBlur stdDeviation="3" result="blur-13"/>
      <feFlood flood-opacity="0.161"/>
      <feComposite operator="in" in2="blur-13"/>
      <feComposite in="SourceGraphic"/>
    </filter>
    <filter id="Path_245" x="742.902" y="59.574" width="34.987" height="20.375" filterUnits="userSpaceOnUse">
      <feOffset dy="3" input="SourceAlpha"/>
      <feGaussianBlur stdDeviation="3" result="blur-14"/>
      <feFlood flood-opacity="0.161"/>
      <feComposite operator="in" in2="blur-14"/>
      <feComposite in="SourceGraphic"/>
    </filter>
    <filter id="Path_293" x="41.225" y="151.534" width="61.55" height="71.467" filterUnits="userSpaceOnUse">
      <feOffset dy="3" input="SourceAlpha"/>
      <feGaussianBlur stdDeviation="3" result="blur-15"/>
      <feFlood flood-opacity="0.161"/>
      <feComposite operator="in" in2="blur-15"/>
      <feComposite in="SourceGraphic"/>
    </filter>
    <filter id="Path_296" x="49.494" y="183.305" width="39.968" height="37.802" filterUnits="userSpaceOnUse">
      <feOffset dy="3" input="SourceAlpha"/>
      <feGaussianBlur stdDeviation="3" result="blur-16"/>
      <feFlood flood-opacity="0.161"/>
      <feComposite operator="in" in2="blur-16"/>
      <feComposite in="SourceGraphic"/>
    </filter>
    <filter id="Path_282" x="755" y="382.517" width="74" height="77.305" filterUnits="userSpaceOnUse">
      <feOffset dy="3" input="SourceAlpha"/>
      <feGaussianBlur stdDeviation="3" result="blur-17"/>
      <feFlood flood-opacity="0.161"/>
      <feComposite operator="in" in2="blur-17"/>
      <feComposite in="SourceGraphic"/>
    </filter>
    <filter id="Path_283" x="766.029" y="376.177" width="40.639" height="30.513" filterUnits="userSpaceOnUse">
      <feOffset dy="3" input="SourceAlpha"/>
      <feGaussianBlur stdDeviation="3" result="blur-18"/>
      <feFlood flood-opacity="0.161"/>
      <feComposite operator="in" in2="blur-18"/>
      <feComposite in="SourceGraphic"/>
    </filter>
  </defs>
  <g id="Group_63" data-name="Group 63" transform="translate(-106 -2547)">
    <g transform="matrix(1, 0, 0, 1, 106, 2547)" filter="url(#Rectangle_783)">
      <g id="Rectangle_783-2" data-name="Rectangle 783" transform="translate(15 136)" fill="#fff" stroke="#1596fa" stroke-width="2">
        <rect width="383" height="257" rx="17" stroke="none"/>
        <rect x="1" y="1" width="381" height="255" rx="16" fill="none"/>
      </g>
    </g>
    <g transform="matrix(1, 0, 0, 1, 106, 2547)" filter="url(#Rectangle_784)">
      <g id="Rectangle_784-2" data-name="Rectangle 784" transform="translate(726 5)" fill="#fff" stroke="#1596fa" stroke-width="2">
        <rect width="978" height="291" rx="17" stroke="none"/>
        <rect x="1" y="1" width="976" height="289" rx="16" fill="none"/>
      </g>
    </g>
    <g transform="matrix(1, 0, 0, 1, 106, 2547)" filter="url(#Rectangle_785)">
      <g id="Rectangle_785-2" data-name="Rectangle 785" transform="translate(727 347)" fill="#fff" stroke="#1596fa" stroke-width="2">
        <rect width="504" height="303" rx="17" stroke="none"/>
        <rect x="1" y="1" width="502" height="301" rx="16" fill="none"/>
      </g>
    </g>
    <g transform="matrix(1, 0, 0, 1, 106, 2547)" filter="url(#Rectangle_786)">
      <g id="Rectangle_786-2" data-name="Rectangle 786" transform="translate(1470 59)" fill="#fff" stroke="#1596fa" stroke-width="2">
        <rect width="188" height="188" rx="94" stroke="none"/>
        <rect x="1" y="1" width="186" height="186" rx="93" fill="none"/>
      </g>
    </g>
    <text id="Practice_Clinic" data-name="Practice / Clinic" transform="translate(217 2742)" font-size="28" font-family="OpenSans-Bold, Open Sans" font-weight="700"><tspan x="0" y="0">Practice / Clinic</tspan></text>
    <text id="ASC_Hospital" data-name="ASC / Hospital" transform="translate(945 2618)" font-size="28" font-family="OpenSans-Bold, Open Sans" font-weight="700"><tspan x="0" y="0">ASC / Hospital</tspan></text>
    <text id="Forward_Stocking_Location" data-name="Forward Stocking Location" transform="translate(939 2973)" font-size="28" font-family="OpenSans-Bold, Open Sans" font-weight="700"><tspan x="0" y="0">Forward Stocking Location</tspan></text>
    <text id="Surgery_Complete" data-name="Surgery
Complete" transform="translate(1670 2697)" font-size="28" font-family="OpenSans-Bold, Open Sans" font-weight="700"><tspan x="-53.635" y="0">Surgery</tspan><tspan x="-67.088" y="38">Complete</tspan></text>
    <text id="Patient_indicated_for_surgery" data-name="Patient indicated for surgery" transform="translate(191 2774)" fill="#1596fa" font-size="20" font-family="OpenSans-Semibold, Open Sans" font-weight="600"><tspan x="0" y="21">Patient indicated for surgery</tspan></text>
    <text id="Implant_Info" data-name="Implant Info" transform="translate(545 2917)" fill="#727374" font-size="20" font-family="OpenSans, Open Sans"><tspan x="-56.929" y="21">Implant Info</tspan></text>
    <text id="Case_Info" data-name="Case Info" transform="translate(632 2664)" fill="#727374" font-size="20" font-family="OpenSans, Open Sans"><tspan x="0" y="21">Case Info</tspan></text>
    <text id="Pre-Op_List_Completed" data-name="Pre-Op List Completed" transform="translate(1189 2634)" fill="#727374" font-size="20" font-family="OpenSans, Open Sans"><tspan x="0" y="21">Pre-Op List Completed</tspan></text>
    <text id="_Increase_Transparency_and_reduce_errors" data-name="• Increase Transparency and reduce errors" transform="translate(868 2697)" fill="#727374" font-size="20" font-family="OpenSans, Open Sans"><tspan x="0" y="21">• Increase Transparency and reduce errors</tspan></text>
    <text id="_Reduce_inventory_space_sterilization" data-name="• Reduce inventory space &amp; sterilization" transform="translate(868 2739)" fill="#727374" font-size="20" font-family="OpenSans, Open Sans"><tspan x="0" y="21">• Reduce inventory space &amp; sterilization</tspan></text>
    <text id="_Quicker_OR_turnover" data-name="• Quicker OR turnover" transform="translate(868 2781)" fill="#727374" font-size="20" font-family="OpenSans, Open Sans"><tspan x="0" y="21">• Quicker OR turnover</tspan></text>
    <text id="Tray_prepared_and_sent" data-name="Tray prepared and sent" transform="translate(903 3006)" fill="#1596fa" font-size="20" font-family="OpenSans, Open Sans"><tspan x="0" y="21">Tray prepared and sent</tspan></text>
    <text id="_Advanced_notification_and_real-time_info" data-name="• Advanced notification and real-time info" transform="translate(870 3058)" fill="#727374" font-size="20" font-family="OpenSans, Open Sans"><tspan x="0" y="21">• Advanced notification and real-time info</tspan></text>
    <text id="_Automate_case_coordination" data-name="• Automate case coordination" transform="translate(158 2813)" fill="#727374" font-size="20" font-family="OpenSans, Open Sans"><tspan x="0" y="21">• Automate case coordination</tspan></text>
    <text id="_Reduce_communication_errors" data-name="• Reduce communication errors" transform="translate(158 2852)" fill="#727374" font-size="20" font-family="OpenSans, Open Sans"><tspan x="0" y="21">• Reduce communication errors</tspan></text>
    <text id="_Avoid_cancellations" data-name="• Avoid cancellations" transform="translate(158 2891)" fill="#727374" font-size="20" font-family="OpenSans, Open Sans"><tspan x="0" y="21">• Avoid cancellations</tspan></text>
    <text id="_Reduction_of_inventory_in_the_field" data-name="• Reduction of inventory in the field" transform="translate(870 3100)" fill="#727374" font-size="20" font-family="OpenSans, Open Sans"><tspan x="0" y="21">• Reduction of inventory in the field</tspan></text>
    <text id="_Tight_tracking" data-name="• Tight tracking" transform="translate(870 3138)" fill="#727374" font-size="20" font-family="OpenSans, Open Sans"><tspan x="0" y="21">• Tight tracking</tspan></text>
    <path id="Path_124" data-name="Path 124" d="M2930,14449.07v33.866s-1.312,19.763-21.53,20-82.791-.148-93.475-.183-13.786,3.587-13.726,13.969,0,233.528,0,233.528" transform="translate(-13945 5760) rotate(-90)" fill="none" stroke="#1596fa" stroke-width="2"/>
    <path id="Path_128" data-name="Path 128" d="M128.811,149.465V115.551s-1.312-19.763-21.53-20-82.791.148-93.475.183S.02,92.146.08,81.764s0-236.787,0-236.787" transform="translate(653.487 2701.189) rotate(90)" fill="none" stroke="#1596fa" stroke-width="2"/>
    <g id="Group_20" data-name="Group 20" transform="translate(254.389 2476.728)">
      <line id="Line_280-2" data-name="Line 280" x2="14.615" transform="translate(540.309 224.541)" fill="none" stroke="#1596fa" stroke-linecap="round" stroke-miterlimit="10" stroke-width="3"/>
      <path id="Path_112-2" data-name="Path 112" d="M564.331,224.5a.064.064,0,0,1,0,.092L560.5,227.56l-3.835,2.974c-.027.02-.06-.005-.06-.047V218.594c0-.04.033-.067.06-.045l3.835,2.973Z" transform="translate(-0.416 0)" fill="#1596fa" stroke="#1596fa" stroke-linecap="round" stroke-miterlimit="10" stroke-width="3"/>
    </g>
    <g id="Group_22" data-name="Group 22" transform="translate(254.657 2734.19)">
      <line id="Line_280-3" data-name="Line 280" x2="14.615" transform="translate(540.309 224.541)" fill="none" stroke="#1596fa" stroke-linecap="round" stroke-miterlimit="10" stroke-width="3"/>
      <path id="Path_112-3" data-name="Path 112" d="M564.331,224.5a.064.064,0,0,1,0,.092L560.5,227.56l-3.835,2.974c-.027.02-.06-.005-.06-.047V218.594c0-.04.033-.067.06-.045l3.835,2.973Z" transform="translate(0.584 0)" fill="#1596fa" stroke="#1596fa" stroke-linecap="round" stroke-miterlimit="10" stroke-width="3"/>
    </g>
    <g transform="matrix(1, 0, 0, 1, 106, 2547)" filter="url(#Path_129)">
      <path id="Path_129-2" data-name="Path 129" d="M6239.413,12950.471H6128.4s-19.845,3.68-20.191,20.337-.014,218.534-.014,218.534-2.146,35.445-26.966,35.09-71.008,0-71.008,0" transform="translate(-4780 -12780)" fill="none" stroke="#1596fa" stroke-width="2"/>
    </g>
    <circle id="Ellipse_3" data-name="Ellipse 3" cx="12.5" cy="12.5" r="12.5" transform="translate(157 2774)" fill="#1596fa"/>
    <text id="_1" data-name="1" transform="translate(165 2775)" fill="#fff" font-size="16" font-family="OpenSans-Bold, Open Sans" font-weight="700"><tspan x="0" y="17">1</tspan></text>
    <text id="Patient_booked_for_surgery" data-name="Patient booked for surgery" transform="translate(900 2656)" fill="#1596fa" font-size="20" font-family="OpenSans-Semibold, Open Sans" font-weight="600"><tspan x="0" y="21">Patient booked for surgery</tspan></text>
    <circle id="Ellipse_4" data-name="Ellipse 4" cx="12.5" cy="12.5" r="12.5" transform="translate(865 2657)" fill="#1596fa"/>
    <text id="_2" data-name="2" transform="translate(873 2658)" fill="#fff" font-size="16" font-family="OpenSans-Bold, Open Sans" font-weight="700"><tspan x="0" y="17">2</tspan></text>
    <circle id="Ellipse_5" data-name="Ellipse 5" cx="12.5" cy="12.5" r="12.5" transform="translate(1658 2634)" fill="#1596fa"/>
    <text id="_4" data-name="4" transform="translate(1666 2635)" fill="#fff" font-size="16" font-family="OpenSans-Bold, Open Sans" font-weight="700"><tspan x="0" y="17">4</tspan></text>
    <circle id="Ellipse_6" data-name="Ellipse 6" cx="12.5" cy="12.5" r="12.5" transform="translate(866 3008)" fill="#1596fa"/>
    <text id="_3" data-name="3" transform="translate(874 3009)" fill="#fff" font-size="16" font-family="OpenSans-Bold, Open Sans" font-weight="700"><tspan x="0" y="17">3</tspan></text>
    <g transform="matrix(1, 0, 0, 1, 106, 2547)" filter="url(#Path_130)">
      <path id="Path_130-2" data-name="Path 130" d="M5863,12894h230.153s13.66.639,13.579,15.492,0,18.174,0,18.174.172,12,13.843,11.867,39.082,0,39.082,0" transform="translate(-4780 -12769)" fill="none" stroke="#1596fa" stroke-width="2"/>
    </g>
    <g id="Ellipse_7" data-name="Ellipse 7" transform="translate(1183 2666)" fill="#1596fa" stroke="#1596fa" stroke-width="1">
      <circle cx="6" cy="6" r="6" stroke="none"/>
      <circle cx="6" cy="6" r="5.5" fill="none"/>
    </g>
    <g id="Group_23" data-name="Group 23" transform="translate(1006.69 2492.93)">
      <g transform="matrix(1, 0, 0, 1, -900.69, 54.07)" filter="url(#Line_280)">
        <line id="Line_280-4" data-name="Line 280" x2="14.615" transform="translate(1441 170.47)" fill="none" stroke="#1596fa" stroke-linecap="round" stroke-miterlimit="10" stroke-width="3"/>
      </g>
      <g transform="matrix(1, 0, 0, 1, -900.69, 54.07)" filter="url(#Path_112)">
        <path id="Path_112-4" data-name="Path 112" d="M564.331,224.5a.064.064,0,0,1,0,.092L560.5,227.56l-3.835,2.974c-.027.02-.06-.005-.06-.047V218.594c0-.04.033-.067.06-.045l3.835,2.973Z" transform="translate(900.27 -54.07)" fill="#1596fa" stroke="#1596fa" stroke-linecap="round" stroke-miterlimit="10" stroke-width="3"/>
      </g>
    </g>
    <g id="zcF01K.tif" transform="translate(416.429 2425.142)">
      <g id="Group_55" data-name="Group 55" transform="translate(440.571 145.906)">
        <path id="Path_233" data-name="Path 233" d="M473.573,209.784v.028H502.8c.613,0,.822-.212.824-.867q.011-4.9.008-9.806c0-2.542,0-5.085-.016-7.627,0-.546.212-.794.752-.78.448.012.9.024,1.345.015.548-.011.877-.225.854-.854-.031-.875-.022-1.752,0-2.628.014-.53-.248-.742-.73-.753-.384-.009-.769,0-1.154.005-1.018,0-1.065-.054-1.057-1.1.011-1.453.007-2.906.007-4.358,0-2.969.008-5.939-.013-8.909,0-.559.206-.783.747-.763.448.016.9.006,1.346.008.576,0,.866-.258.852-.86-.019-.79,0-1.581-.005-2.372,0-.927-.1-1.018-1.033-1.018q-7.916.006-15.832.007c-.922,0-1-.084-1-1.04,0-1.581,0-3.162-.01-4.743a2.289,2.289,0,0,0-2.544-2.53c-1.56-.01-3.119,0-4.679,0-.787,0-.814-.1-.46-.809a8.018,8.018,0,0,0,.039-7.523,8.346,8.346,0,1,0-14.862,7.6c.332.6.261.729-.446.732-1.538.007-3.077,0-4.615,0-1.8,0-2.651.851-2.658,2.676-.006,1.538,0,3.077,0,4.615,0,.945-.083,1.024-1.021,1.024H441.86c-.214,0-.428,0-.641.013-.4.025-.632.2-.63.64.006.94,0,1.88-.008,2.82a.675.675,0,0,0,.7.75c.169.016.341.011.512.011,2.089,0,1.7-.153,1.712,1.746q.025,6.249.018,12.5c0,.73-.126.857-.853.878-.384.011-.769-.01-1.153-.012-.725-.005-.917.178-.926.892-.006.47-.014.94,0,1.41.049,1.843-.461,1.971,1.929,1.949.969-.009,1.008.04,1.008,1.013q0,8.2,0,16.409c0,1.611,0,1.612,1.594,1.612Z" transform="translate(-440.571 -145.906)" fill="none"/>
        <g transform="matrix(1, 0, 0, 1, -751, -24.05)" filter="url(#Path_234)">
          <path id="Path_234-2" data-name="Path 234" d="M473.573,209.784H445.115c-1.594,0-1.594,0-1.594-1.612q0-8.2,0-16.409c0-.973-.039-1.022-1.008-1.013-2.389.022-1.88-.106-1.929-1.949-.012-.47,0-.94,0-1.41.009-.714.2-.9.926-.892.384,0,.769.024,1.153.012.727-.021.854-.149.853-.878q0-6.249-.018-12.5c-.008-1.9.377-1.743-1.712-1.746-.171,0-.343.005-.512-.011a.675.675,0,0,1-.7-.75c.007-.94.014-1.88.008-2.82,0-.438.233-.615.63-.64.213-.014.427-.013.641-.013h15.576c.938,0,1.018-.079,1.021-1.024,0-1.538,0-3.077,0-4.615.007-1.826.853-2.674,2.658-2.676,1.538,0,3.077,0,4.615,0,.707,0,.778-.128.446-.732a8.346,8.346,0,1,1,14.862-7.6,8.018,8.018,0,0,1-.039,7.523c-.354.712-.328.806.46.809,1.56.005,3.12-.008,4.679,0a2.289,2.289,0,0,1,2.544,2.53c.01,1.581.006,3.162.01,4.743,0,.957.081,1.041,1,1.04q7.916,0,15.832-.007c.928,0,1.029.091,1.033,1.018,0,.791-.013,1.581.005,2.372.014.6-.275.863-.852.86-.449,0-.9.008-1.346-.008-.541-.02-.751.2-.747.763.021,2.97.013,5.939.013,8.909,0,1.453,0,2.906-.007,4.358-.008,1.047.039,1.106,1.057,1.1.385,0,.769-.014,1.154-.005.482.011.744.223.73.753-.024.875-.033,1.753,0,2.628.023.629-.306.843-.854.854-.448.009-.9,0-1.345-.015-.54-.014-.756.233-.752.779.019,2.542.016,5.085.016,7.627q0,4.9-.008,9.806c0,.656-.211.867-.824.867H473.573Zm-14.212-25.149h0q0,11.634,0,23.269c0,.864.09.954.955.956q1.955,0,3.91,0c.94,0,.97-.027.971-.976q.006-6.731.009-13.461a2.307,2.307,0,0,1,2.623-2.633q5.7-.005,11.41,0c1.871,0,2.7.82,2.7,2.686q0,6.763,0,13.525c0,.77.073.853.838.857,1.325.008,2.649,0,3.974,0,.972,0,1.027-.054,1.028-1q.006-11.025.008-22.051,0-12.147-.007-24.294c0-1.3-.493-1.776-1.78-1.779-1.795,0-3.59-.035-5.384.012a1.986,1.986,0,0,0-1.178.474,8.565,8.565,0,0,1-5.466,2.361,8.479,8.479,0,0,1-6.289-2.389,1.885,1.885,0,0,0-1.128-.446c-1.772-.044-3.546-.017-5.32-.014-1.389,0-1.874.5-1.874,1.9Q459.363,173.13,459.362,184.636Zm21.676,16.5h0c0-2.243.005-4.486,0-6.729,0-1.256-.489-1.729-1.753-1.729q-5.7,0-11.407,0c-1.26,0-1.749.476-1.751,1.731q-.01,6.761-.005,13.521c0,.81.126.938.923.938q6.536,0,13.073-.008c.808,0,.925-.123.926-.931Q481.041,204.535,481.038,201.138Zm-22.576-1.309h-.007q0-1.858,0-3.715,0-2.306,0-4.612c0-.445-.07-.787-.662-.784-4.121.023-8.242.024-12.362.033-1.009,0-1.035.025-1.034,1.05q.006,8.039.016,16.078c0,.951.017.986.943.986q6.117,0,12.235,0c.786,0,.87-.092.871-.9Q458.464,203.9,458.462,199.829Zm44.276-.044h0c0-2.754-.012-5.508.01-8.262,0-.55-.169-.778-.726-.777q-6.277.012-12.555-.006c-.549,0-.778.228-.778.761q.005,8.327,0,16.654c0,.522.235.717.743.716q6.245-.013,12.491,0c.6,0,.828-.2.822-.826C502.724,205.294,502.738,202.54,502.738,199.785Zm0-20.79h.008c0-2.263-.017-4.527.011-6.79.008-.615-.208-.832-.813-.83q-6.246.022-12.493,0c-.543,0-.773.192-.771.747q.016,6.791,0,13.582c0,.6.248.821.851.818,4.164-.019,8.327-.015,12.491-.012.5,0,.726-.193.721-.728C502.732,183.522,502.743,181.259,502.743,179Zm-58.347-.012h.011c0,2.157.007,4.313,0,6.47,0,.987.05,1.064,1.029,1.065q6.053,0,12.107-.005c.83,0,.917-.088.917-.922,0-4.463-.01-8.925.008-13.388,0-.617-.221-.824-.825-.822-4.142.017-8.285.008-12.427.013-.762,0-.815.067-.816.864Q444.394,175.62,444.4,178.983Zm29.1-17.3a7.434,7.434,0,1,0-7.365-7.548A7.485,7.485,0,0,0,473.493,161.687Zm-23.5,6.369c-2.35,0-4.7.008-7.051,0-1.7-.007-1.458-.041-1.467,1.5,0,.775.127.9.888.9q7.275,0,14.55,0c1.516,0,1.558.361,1.547-1.551,0-.78-.063-.839-.84-.84Zm47.168,0v0c-2.286,0-4.572-.012-6.858,0-1.8.012-1.6-.262-1.608,1.74,0,.481.216.666.714.665,4.913-.016,9.827-.012,14.741-.016,1.543,0,1.543,0,1.528-1.528-.008-.8-.066-.861-.89-.862Q500.974,168.052,497.161,168.053Zm-.011,21.749c2.411,0,4.822-.006,7.233,0,1.3,0,1.3.014,1.295-1.282,0-1.083-.01-1.091-1.118-1.091l-14.338-.005c-1.545,0-1.545,0-1.529,1.52.008.77.085.853.841.854Q493.341,189.805,497.149,189.8Zm-47.118-2.369h-7.176c-1.385,0-1.385,0-1.383,1.407,0,.906.061.963.992.963q7.24,0,14.48,0c1.559,0,1.534.2,1.508-1.533-.011-.759-.087-.833-.862-.834Q453.812,187.432,450.031,187.433Z" transform="translate(310.43 -121.86)" stroke="#000" stroke-width="1"/>
        </g>
        <path id="Path_237" data-name="Path 237" d="M484.479,504.552q0,4.068,0,8.135c0,.807-.085.9-.871.9q-6.117.005-12.235,0c-.926,0-.942-.035-.943-.986q-.005-8.039-.016-16.078c0-1.025.026-1.048,1.034-1.05,4.121-.009,8.242-.01,12.362-.033.592,0,.662.339.662.784q0,2.306,0,4.612,0,1.858,0,3.715Zm-7.13-2.565V502c1.366,0,2.733.006,4.1,0,.71,0,.859-.156.869-.873.01-.747-.017-1.495,0-2.242.01-.518-.226-.733-.732-.733-2.754,0-5.508-.009-8.262-.011-.523,0-.773.256-.759.8.019.747,0,1.494,0,2.241,0,.589.286.832.881.821C474.744,501.971,476.046,501.987,477.348,501.987Zm.194,2.482v0c-1.344,0-2.688-.005-4.032,0-.808,0-.946.144-.949.92,0,.683,0,1.365.005,2.048.008.655.221.879.893.881,2.688.007,5.376-.005,8.065,0,.584,0,.8-.283.8-.826-.006-.7,0-1.408,0-2.112-.006-.811-.1-.908-.936-.912C480.1,504.465,478.822,504.469,477.542,504.469Z" transform="translate(-466.588 -450.628)" fill="none"/>
        <path id="Path_238" data-name="Path 238" d="M829.971,504.661c0,2.754-.015,5.509.011,8.263.006.622-.224.827-.822.825q-6.245-.019-12.491,0c-.508,0-.744-.194-.743-.716q.008-8.327,0-16.654c0-.533.229-.763.778-.761q6.277.02,12.555.006c.557,0,.731.227.726.777-.023,2.754-.01,5.508-.01,8.262Zm-7.06-2.516c1.345,0,2.69-.011,4.035.005.581.007.889-.222.888-.82,0-.747-.011-1.495.01-2.242.016-.543-.24-.8-.759-.8-2.776,0-5.551.01-8.327.011-.5,0-.677.253-.671.723.01.747-.013,1.495,0,2.242s.147.876.919.877C820.306,502.147,821.609,502.145,822.911,502.145Zm.078,2.466v.005c-1.365,0-2.731.008-4.1,0-.549,0-.836.191-.815.786.026.746.01,1.493,0,2.24,0,.54.208.832.795.83,2.709-.009,5.418,0,8.127,0,.589,0,.848-.3.837-.88-.012-.661-.006-1.323,0-1.984,0-.855-.127-.989-1.009-.992C825.549,504.608,824.269,504.611,822.989,504.611Z" transform="translate(-767.804 -450.781)" fill="none"/>
        <path id="Path_239" data-name="Path 239" d="M829.921,352.187c0,2.263-.011,4.527.008,6.79,0,.535-.216.729-.721.728-4.164,0-8.328-.006-12.491.012-.6,0-.852-.214-.851-.818q.013-6.791,0-13.582c0-.555.229-.748.771-.747q6.246.017,12.493,0c.6,0,.821.215.813.83-.028,2.263-.011,4.527-.011,6.79Zm-7.054,4.88v0c1.324,0,2.647.007,3.971,0,.8-.006.941-.152.942-.927,0-.683,0-1.366.005-2.05a.752.752,0,0,0-.855-.868c-2.69,0-5.38.008-8.071,0-.61,0-.846.286-.837.862.011.7.032,1.41,0,2.113-.028.642.257.883.873.876C820.219,357.057,821.543,357.067,822.867,357.067Zm-.063-6.3v0c1.346,0,2.692.009,4.037,0,.769-.007.93-.183.939-.956.008-.662.011-1.324,0-1.986-.007-.7-.223-.917-.93-.918-2.67,0-5.34.008-8.01,0-.574,0-.823.262-.819.813,0,.726,0,1.453.011,2.179s.128.865.859.872C820.2,350.772,821.5,350.762,822.8,350.762Z" transform="translate(-767.748 -319.097)" fill="none"/>
        <path id="Path_240" data-name="Path 240" d="M470.406,352.212q0-3.363,0-6.726c0-.8.054-.863.816-.864,4.142-.005,8.285,0,12.427-.013.6,0,.828.2.825.822-.017,4.463-.006,8.925-.008,13.388,0,.834-.087.921-.917.922q-6.054.006-12.107.005c-.979,0-1.033-.078-1.029-1.065.01-2.156,0-4.313,0-6.47Zm7.035,4.892v0c1.3,0,2.605.012,3.908,0,.87-.011.956-.115.958-.96,0-.683,0-1.367,0-2.05,0-.54-.218-.836-.8-.834-2.712.007-5.424,0-8.136,0a.733.733,0,0,0-.82.838c0,.683,0,1.367,0,2.05,0,.8.123.946.914.954C474.793,357.113,476.117,357.1,477.441,357.1Zm-.031-6.3V350.8c1.364,0,2.729-.005,4.093,0,.549,0,.832-.211.813-.8-.024-.745-.012-1.492-.007-2.238,0-.549-.239-.827-.808-.827-2.708,0-5.415,0-8.123-.005a.726.726,0,0,0-.824.827c.006.682,0,1.364,0,2.047,0,.836.159.995,1.018,1C474.851,350.81,476.13,350.806,477.409,350.806Z" transform="translate(-466.581 -319.135)" fill="none"/>
        <g transform="matrix(1, 0, 0, 1, -751, -24.05)" filter="url(#Path_241)">
          <path id="Path_241-2" data-name="Path 241" d="M647.287,167.9a7.434,7.434,0,1,1,7.532-7.509A7.495,7.495,0,0,1,647.287,167.9Zm5.465-7.417h0v-1.024c0-.043,0-.085,0-.128-.019-.684-.249-.926-.922-.94-.512-.011-1.024,0-1.536-.008-.786-.009-.849-.072-.856-.834-.005-.555-.023-1.11,0-1.664a.672.672,0,0,0-.716-.788c-.9-.025-1.793-.016-2.688.01a.668.668,0,0,0-.722.78c.019.49,0,.982,0,1.472,0,1.008-.014,1.023-1.051,1.028-.491,0-.982,0-1.472.012a.728.728,0,0,0-.791.8c0,.832,0,1.664,0,2.5a.693.693,0,0,0,.778.8c.64,0,1.281.016,1.92,0,.437-.009.624.193.621.615q-.008.96-.005,1.921a.708.708,0,0,0,.786.8c.853,0,1.707,0,2.561-.009a.7.7,0,0,0,.777-.8c0-.64.012-1.281,0-1.921-.006-.432.186-.618.619-.608.64.014,1.28,0,1.921,0,.539,0,.776-.281.78-.794C652.754,161.3,652.752,160.891,652.752,160.486Z" transform="translate(136.64 -128.08)" fill="#fff"/>
        </g>
        <g transform="matrix(1, 0, 0, 1, -751, -24.05)" filter="url(#Path_242)">
          <path id="Path_242-2" data-name="Path 242" d="M456.1,318.647h7.628c.777,0,.836.06.84.839.011,1.912-.032,1.549-1.547,1.551q-7.275.011-14.55,0c-.761,0-.893-.124-.888-.9.009-1.538-.23-1.5,1.467-1.5C451.4,318.654,453.751,318.647,456.1,318.647Z" transform="translate(304.32 -272.45)" fill="#fff"/>
        </g>
        <g transform="matrix(1, 0, 0, 1, -751, -24.05)" filter="url(#Path_243)">
          <path id="Path_243-2" data-name="Path 243" d="M824.372,318.61q3.814,0,7.627,0c.824,0,.882.06.89.862C832.9,321,832.9,321,831.361,321c-4.914,0-9.827,0-14.741.016-.5,0-.715-.184-.714-.664,0-2-.192-1.728,1.608-1.74,2.286-.015,4.572,0,6.858,0Z" transform="translate(-16.78 -272.41)" fill="#fff"/>
        </g>
        <g transform="matrix(1, 0, 0, 1, -751, -24.05)" filter="url(#Path_244)">
          <path id="Path_244-2" data-name="Path 244" d="M824.349,472.142q-3.809,0-7.617,0c-.756,0-.833-.085-.841-.854-.016-1.523-.016-1.521,1.529-1.52l14.338.005c1.108,0,1.117.008,1.118,1.091,0,1.3,0,1.286-1.295,1.282C829.171,472.137,826.76,472.142,824.349,472.142Z" transform="translate(-16.77 -404.2)" fill="#fff"/>
        </g>
        <g transform="matrix(1, 0, 0, 1, -751, -24.05)" filter="url(#Path_245)">
          <path id="Path_245-2" data-name="Path 245" d="M456.166,469.816q3.78,0,7.56,0c.775,0,.851.075.862.834.025,1.732.05,1.531-1.508,1.533q-7.24.008-14.48,0c-.931,0-.991-.057-.992-.963,0-1.407,0-1.407,1.383-1.407Z" transform="translate(304.29 -404.24)" fill="#fff"/>
        </g>
        <path id="Path_246" data-name="Path 246" d="M608.188,303.6c-.491,0-.982.012-1.472,0a1.456,1.456,0,0,1-1.524-1.533q-.03-1.535,0-3.071a1.376,1.376,0,0,1,1.368-1.477,30.687,30.687,0,0,1,3.386.015,1.341,1.341,0,0,1,1.3,1.4c.033,1.065.042,2.134,0,3.2a1.418,1.418,0,0,1-1.528,1.464C609.213,303.618,608.7,303.6,608.188,303.6Zm-2.111-3.105h-.006c0,.47,0,.939,0,1.409a.712.712,0,0,0,.737.8c.938.027,1.878.015,2.817,0a.674.674,0,0,0,.735-.718c.01-.96,0-1.921-.007-2.881a.6.6,0,0,0-.626-.663c-1-.016-2.006-.015-3.008.012a.607.607,0,0,0-.646.7C606.089,299.6,606.077,300.049,606.077,300.5Z" transform="translate(-584.075 -278.046)" fill="#071a2f"/>
        <path id="Path_247" data-name="Path 247" d="M677.3,303.455c-.512,0-1.024.017-1.535,0A1.409,1.409,0,0,1,674.3,302c-.034-1.044-.027-2.09-.007-3.135a1.461,1.461,0,0,1,1.537-1.528c.958-.031,1.919-.034,2.877,0a1.507,1.507,0,0,1,1.643,1.694c.015.938.019,1.877,0,2.815a1.461,1.461,0,0,1-1.64,1.613c-.469.009-.938,0-1.408,0Zm2.162-3.106c0-.427-.011-.854,0-1.28a.665.665,0,0,0-.714-.785q-1.439-.028-2.878,0a.641.641,0,0,0-.7.73c.011.917-.006,1.834,0,2.751a.728.728,0,0,0,.8.8c.9.013,1.792.017,2.687,0a.733.733,0,0,0,.793-.809C679.465,301.287,679.459,300.817,679.461,300.348Z" transform="translate(-644.313 -277.901)" fill="#071a2f"/>
        <path id="Path_248" data-name="Path 248" d="M746.334,303.566c-.533,0-1.068.018-1.6,0a1.34,1.34,0,0,1-1.4-1.3c-.058-1.149-.057-2.3-.012-3.455a1.335,1.335,0,0,1,1.386-1.321c1.023-.044,2.049-.061,3.072-.028a1.475,1.475,0,0,1,1.592,1.666c.01.939.014,1.878,0,2.817a1.482,1.482,0,0,1-1.627,1.631c-.469.007-.939,0-1.409,0Zm-2.129-3.075h-.013c0,.449,0,.9,0,1.346a.743.743,0,0,0,.826.839c.876.009,1.752.014,2.627,0a.752.752,0,0,0,.843-.828c0-.9-.011-1.795,0-2.692a.67.67,0,0,0-.739-.765c-.961-.02-1.922-.015-2.883,0a.614.614,0,0,0-.667.69Q744.206,299.786,744.205,300.491Z" transform="translate(-704.477 -278.012)" fill="#071a2f"/>
        <path id="Path_249" data-name="Path 249" d="M749.442,430.33c0,.533.019,1.067,0,1.6a1.362,1.362,0,0,1-1.391,1.448c-1.108.036-2.219.03-3.326-.008a1.236,1.236,0,0,1-1.3-1.238c-.059-1.191-.061-2.388-.008-3.579a1.237,1.237,0,0,1,1.265-1.209c1.15-.041,2.3-.041,3.454-.005a1.36,1.36,0,0,1,1.309,1.328c.021.276.008.554.009.832s0,.555,0,.832ZM746.4,432.5c.447,0,.895,0,1.342,0a.727.727,0,0,0,.825-.824c0-.873-.006-1.747,0-2.62a.721.721,0,0,0-.807-.836c-.895,0-1.789,0-2.684-.006-.562,0-.816.275-.815.824,0,.895,0,1.789,0,2.684a.7.7,0,0,0,.795.778C745.5,432.5,745.951,432.5,746.4,432.5Z" transform="translate(-704.551 -391.235)" fill="#071a2f"/>
        <path id="Path_250" data-name="Path 250" d="M608.293,427.349c.533,0,1.067-.023,1.6.005a1.257,1.257,0,0,1,1.333,1.208,35.6,35.6,0,0,1-.006,3.64,1.21,1.21,0,0,1-1.279,1.186c-1.129.036-2.261.04-3.389,0a1.307,1.307,0,0,1-1.33-1.359c-.032-1.087-.039-2.175-.008-3.262a1.36,1.36,0,0,1,1.418-1.419c.553-.028,1.108-.005,1.663-.005Zm-.081.889v-.006c-.427,0-.854,0-1.281,0-.546-.006-.846.244-.848.8,0,.9,0,1.794,0,2.691a.711.711,0,0,0,.794.793c.9,0,1.794,0,2.691,0a.7.7,0,0,0,.807-.773c.007-.918.008-1.837,0-2.755a.679.679,0,0,0-.756-.755C609.151,428.236,608.682,428.238,608.212,428.238Z" transform="translate(-584.087 -391.252)" fill="#071a2f"/>
        <path id="Path_251" data-name="Path 251" d="M749.354,365.839c0,.512.017,1.025,0,1.537a1.439,1.439,0,0,1-1.4,1.461c-1.087.041-2.177.038-3.265.006a1.39,1.39,0,0,1-1.363-1.291c-.057-1.15-.065-2.305-.019-3.455a1.416,1.416,0,0,1,1.429-1.371c1.066-.038,2.135-.04,3.2,0a1.459,1.459,0,0,1,1.424,1.513c.017.533,0,1.067,0,1.6Zm-.873-.05h0c0-.426-.02-.853,0-1.278a.735.735,0,0,0-.785-.871c-.915-.035-1.832-.036-2.747-.012a.719.719,0,0,0-.772.818c.012.894.01,1.789,0,2.684a.718.718,0,0,0,.781.809c.915.024,1.832.027,2.747,0a.726.726,0,0,0,.782-.868C748.458,366.643,748.481,366.215,748.481,365.789Z" transform="translate(-704.465 -334.903)" fill="#071a2f"/>
        <path id="Path_252" data-name="Path 252" d="M680.32,430.314c0,.575.035,1.153-.008,1.726a1.309,1.309,0,0,1-1.359,1.334c-1.107.037-2.218.034-3.325-.008a1.307,1.307,0,0,1-1.351-1.4q-.044-1.6,0-3.2a1.3,1.3,0,0,1,1.339-1.415c1.148-.054,2.3-.047,3.451,0a1.279,1.279,0,0,1,1.252,1.3c.038.552.007,1.108.007,1.662Zm-.878.068c0-.468,0-.937,0-1.4a.667.667,0,0,0-.74-.758c-.915,0-1.83-.012-2.745-.009a.705.705,0,0,0-.8.775q0,1.373,0,2.746a.679.679,0,0,0,.741.766c.936.01,1.873.012,2.809,0a.685.685,0,0,0,.737-.774C679.445,431.276,679.441,430.829,679.442,430.382Z" transform="translate(-644.295 -391.233)" fill="#071a2f"/>
        <path id="Path_253" data-name="Path 253" d="M605.237,365.747c0-.512-.016-1.025,0-1.536a1.466,1.466,0,0,1,1.443-1.5c1.065-.04,2.134-.035,3.2,0a1.444,1.444,0,0,1,1.406,1.4c.041,1.108.043,2.22,0,3.327a1.422,1.422,0,0,1-1.458,1.405q-1.567.043-3.136,0a1.46,1.46,0,0,1-1.445-1.427c-.032-.553-.006-1.109-.006-1.664Zm5.18.022h0c0-.427-.017-.855,0-1.281a.728.728,0,0,0-.791-.863c-.9-.024-1.793-.026-2.689,0a.772.772,0,0,0-.825.91c.024.832.029,1.666,0,2.5a.768.768,0,0,0,.839.894c.874.03,1.75.024,2.625,0,.549-.012.877-.274.845-.882C610.4,366.623,610.417,366.2,610.417,365.769Z" transform="translate(-584.121 -334.893)" fill="#071a2f"/>
        <path id="Path_254" data-name="Path 254" d="M680.34,365.777c0,.533.019,1.067,0,1.6a1.452,1.452,0,0,1-1.446,1.488c-1.065.038-2.133.039-3.2.005a1.422,1.422,0,0,1-1.4-1.4c-.037-1.108-.037-2.218,0-3.326a1.417,1.417,0,0,1,1.4-1.39c1.086-.041,2.176-.04,3.262,0a1.454,1.454,0,0,1,1.377,1.421C680.362,364.71,680.34,365.244,680.34,365.777Zm-.883.07h0c0-.448-.015-.9,0-1.345a.733.733,0,0,0-.813-.846c-.9-.021-1.793-.015-2.689.01a.732.732,0,0,0-.8.855c.025.853.023,1.708,0,2.561a.765.765,0,0,0,.847.885q1.28.03,2.562,0c.567-.013.931-.262.894-.908C679.438,366.659,679.457,366.253,679.457,365.847Z" transform="translate(-644.305 -334.93)" fill="#071a2f"/>
        <path id="Path_264" data-name="Path 264" d="M612.146,306.934c0-.448.012-.9,0-1.345a.607.607,0,0,1,.646-.705c1-.027,2.005-.028,3.008-.012a.6.6,0,0,1,.626.663c.007.96.017,1.921.007,2.881a.674.674,0,0,1-.735.718c-.939.019-1.879.03-2.817,0a.712.712,0,0,1-.737-.8c0-.47,0-.939,0-1.409Z" transform="translate(-590.144 -284.483)" fill="#fff"/>
        <path id="Path_265" data-name="Path 265" d="M685.571,306.861c0,.469,0,.938,0,1.407a.733.733,0,0,1-.793.808c-.9.015-1.792.012-2.687,0a.728.728,0,0,1-.8-.8c-.006-.917.01-1.834,0-2.751a.641.641,0,0,1,.7-.73q1.438-.031,2.878,0a.665.665,0,0,1,.714.785C685.561,306.007,685.572,306.434,685.571,306.861Z" transform="translate(-650.425 -284.413)" fill="#fff"/>
        <path id="Path_266" data-name="Path 266" d="M750.355,306.887q0-.7,0-1.41a.614.614,0,0,1,.667-.69c.961-.014,1.922-.019,2.883,0a.67.67,0,0,1,.738.765c-.015.9,0,1.794,0,2.692a.752.752,0,0,1-.843.828c-.876.013-1.752.008-2.627,0a.743.743,0,0,1-.826-.839c0-.449,0-.9,0-1.346Z" transform="translate(-710.627 -284.408)" fill="#fff"/>
        <path id="Path_267" data-name="Path 267" d="M752.443,438.645c-.447,0-.895,0-1.342,0a.7.7,0,0,1-.795-.778c0-.894,0-1.789,0-2.684,0-.548.253-.829.815-.824.894.007,1.789,0,2.684.006a.721.721,0,0,1,.807.836c-.008.873,0,1.746,0,2.62a.727.727,0,0,1-.825.825C753.337,438.645,752.89,438.646,752.443,438.645Z" transform="translate(-710.595 -397.378)" fill="#fff"/>
        <path id="Path_268" data-name="Path 268" d="M614.256,434.338c.47,0,.94,0,1.41,0a.679.679,0,0,1,.756.755c.01.918.009,1.837,0,2.755a.7.7,0,0,1-.808.773c-.9,0-1.794,0-2.691,0a.711.711,0,0,1-.795-.793c-.006-.9-.005-1.794,0-2.691,0-.561.3-.81.848-.8.427,0,.854,0,1.281,0Z" transform="translate(-590.131 -397.352)" fill="#fff"/>
        <path id="Path_269" data-name="Path 269" d="M754.621,372.017c0,.426-.023.854.006,1.278a.726.726,0,0,1-.782.868c-.915.032-1.832.028-2.747,0a.718.718,0,0,1-.781-.809c.011-.895.014-1.789,0-2.684a.719.719,0,0,1,.772-.818c.915-.024,1.833-.023,2.747.012a.735.735,0,0,1,.785.871c-.025.425,0,.852,0,1.278Z" transform="translate(-710.605 -341.13)" fill="#fff"/>
        <path id="Path_270" data-name="Path 270" d="M685.536,436.493c0,.447,0,.894,0,1.341a.685.685,0,0,1-.737.774c-.936.011-1.873.009-2.809,0a.679.679,0,0,1-.741-.766q0-1.373,0-2.746a.705.705,0,0,1,.8-.775c.915,0,1.83,0,2.746.009a.667.667,0,0,1,.74.758C685.538,435.556,685.536,436.025,685.536,436.493Z" transform="translate(-650.389 -397.344)" fill="#fff"/>
        <path id="Path_271" data-name="Path 271" d="M616.4,372.034c0,.427-.018.855,0,1.281.032.608-.3.87-.845.882-.875.019-1.751.025-2.625,0a.768.768,0,0,1-.839-.894c.029-.832.024-1.665,0-2.5a.772.772,0,0,1,.825-.91c.9-.027,1.793-.024,2.689,0a.729.729,0,0,1,.791.863c-.021.426,0,.854,0,1.281Z" transform="translate(-590.107 -341.158)" fill="#fff"/>
        <path id="Path_272" data-name="Path 272" d="M685.5,372.078c0,.406-.019.812,0,1.217.036.646-.328.895-.895.908q-1.28.03-2.562,0a.765.765,0,0,1-.847-.885c.021-.853.022-1.708,0-2.561a.732.732,0,0,1,.8-.855c.9-.026,1.793-.031,2.689-.01a.733.733,0,0,1,.813.846c-.018.448,0,.9,0,1.345Z" transform="translate(-650.351 -341.16)" fill="#fff"/>
        <path id="Path_276" data-name="Path 276" d="M843.592,572.829c1.045,0,2.09-.006,3.135,0,.774.005.821.07.827.989.006.879-.115,1.054-.808,1.056-2.133.008-4.266-.011-6.4.008-.546.005-.765-.191-.775-.74-.024-1.305-.039-1.307,1.267-1.312.917,0,1.834,0,2.751,0Z" transform="translate(-788.413 -518.093)" fill="#fff"/>
        <path id="Path_277" data-name="Path 277" d="M843.536,421.182c-1.047,0-2.093-.018-3.139.008-.544.013-.761-.173-.761-.738,0-1.307-.02-1.31,1.3-1.311H846.7c.766,0,.906.137.909.883,0,1.077-.053,1.158-.867,1.161-1.068,0-2.135,0-3.2,0Z" transform="translate(-788.474 -384.11)" fill="#fff"/>
        <path id="Path_279" data-name="Path 279" d="M498.209,421.155c-1.068,0-2.136.009-3.2,0-.709-.008-.778-.108-.779-.984,0-.892.106-1.052.8-1.055,2.157-.009,4.315.006,6.472-.01.507,0,.671.221.687.692.047,1.365.052,1.37-1.288,1.359l-.385,0h-2.307Z" transform="translate(-487.347 -384.077)" fill="#fff"/>
        <path id="Path_281" data-name="Path 281" d="M670.4,181.607c-1.644.037-1.633-.21-1.625,1.652,0,.064,0,.128,0,.192-.006,1.548-.021,1.553-1.585,1.5-.5-.018-.756-.219-.749-.731.007-.6,0-1.2.008-1.794.01-.55-.2-.835-.8-.808s-1.2-.009-1.794,0c-.488.009-.694-.225-.708-.7-.05-1.676.032-1.631,1.48-1.614,1.786.022,1.853.221,1.812-1.794-.031-1.532.083-1.615,1.63-1.5.5.037.733.245.709.765-.026.554-.01,1.11,0,1.666.009.7.165.86.88.873.534.009,1.068.009,1.6-.006.557-.016.813.219.827.8C672.125,181.59,672.14,181.59,670.4,181.607Z" transform="translate(-634.609 -172.121)"/>
      </g>
    </g>
    <g id="UBIKpH.tif" transform="translate(-322.432 2571.406)">
      <g id="Group_57" data-name="Group 57" transform="translate(478.657 133.128)">
        <g transform="matrix(1, 0, 0, 1, -50.22, -157.53)" filter="url(#Path_293)">
          <path id="Path_293-2" data-name="Path 293" d="M478.663,162.614q0-9.7-.006-19.395a4.382,4.382,0,0,1,1.634-3.554,4.5,4.5,0,0,1,2.89-.991c.968-.021.981-.016.97-.992a4.307,4.307,0,0,1,2.172-3.942,3.8,3.8,0,0,1,1.9-.6c.336-.01.672-.008,1.008-.008q14.149,0,28.3-.008a5.391,5.391,0,0,1,2.888.91,3.84,3.84,0,0,1,1.606,2.208,4.8,4.8,0,0,1,.184,1.627c-.291,12.886-.044,25.774-.119,38.661a4.326,4.326,0,0,1-2.41,4.034,4.606,4.606,0,0,1-2.306.491c-.9-.015-.8-.019-.773.779a4.386,4.386,0,0,1-1.859,3.949,4.277,4.277,0,0,1-2.611.808c-2.868-.012-5.736,0-8.6,0q-10.167,0-20.333,0a4.379,4.379,0,0,1-3.68-1.789,4,4,0,0,1-.841-2.327c-.01-.246-.007-.493-.007-.739q0-9.563,0-19.126Zm28.765,22.027a2.739,2.739,0,0,0,.329.053c1.5,0,3,.018,4.5-.016a2.559,2.559,0,0,0,2.439-2.733q-.01-18.27,0-36.539c0-.773.031-1.548-.014-2.319a2.915,2.915,0,0,0-.3-1.153,2.392,2.392,0,0,0-2.315-1.3q-14.452.012-28.9,0a2.447,2.447,0,0,0-1.523.42,2.679,2.679,0,0,0-1.089,2.326q.014,19.177.006,38.355c0,.157,0,.314,0,.471a2.507,2.507,0,0,0,2.484,2.487c1.658.018,3.316.01,4.974.007.089,0,.232-.036.253-.092a.326.326,0,0,0-.079-.268,12.637,12.637,0,0,1-1.828-2.757,12.008,12.008,0,0,1-1.234-4.088,12.851,12.851,0,0,1,.83-6.391,13.049,13.049,0,0,1,2.244-3.671,12.8,12.8,0,0,1,4.461-3.307,12.234,12.234,0,0,1,3.9-1.054,12.857,12.857,0,0,1,8.236,1.922,13.009,13.009,0,0,1,6,10.223,12.3,12.3,0,0,1-.563,4.439,12.73,12.73,0,0,1-2.064,4.036C507.94,183.985,507.708,184.28,507.427,184.641Zm12.762-27.556q0-9.714,0-19.428a2.536,2.536,0,0,0-2.622-2.628l-28.23,0c-.28,0-.561-.017-.84,0a2.534,2.534,0,0,0-2.08,1.222,3.373,3.373,0,0,0-.37,1.945c.008.416.045.459.46.469.067,0,.134,0,.2,0h23.76a14.73,14.73,0,0,1,1.88.028,5.426,5.426,0,0,1,1.834.473,4.281,4.281,0,0,1,2.406,4.033q-.008,17.5,0,34.99c0,.937-.186.905.93.9a2.471,2.471,0,0,0,2.669-2.618Q520.185,166.782,520.189,157.085ZM497.884,184.7c2.05,0,4.1-.005,6.149.005a1.21,1.21,0,0,0,.825-.3,10.868,10.868,0,0,0,3.877-6.7,10.629,10.629,0,0,0-.677-6,11.065,11.065,0,0,0-3.912-4.834,10.767,10.767,0,0,0-5.227-1.915,10.492,10.492,0,0,0-6.585,1.508,10.845,10.845,0,0,0-5.348,8.457,10.269,10.269,0,0,0,.685,4.877,10.912,10.912,0,0,0,3.314,4.6,1.208,1.208,0,0,0,.817.309C493.829,184.69,495.857,184.7,497.884,184.7Z" transform="translate(-428.43 24.41)"/>
        </g>
        <path id="Path_294" data-name="Path 294" d="M523.3,247.549c.281-.361.513-.656.741-.954a12.729,12.729,0,0,0,2.064-4.036,12.3,12.3,0,0,0,.563-4.439,12.894,12.894,0,0,0-14.232-12.145,12.233,12.233,0,0,0-3.9,1.054,12.8,12.8,0,0,0-4.461,3.307,13.049,13.049,0,0,0-2.244,3.671A12.851,12.851,0,0,0,501,240.4a12.008,12.008,0,0,0,1.234,4.088,12.637,12.637,0,0,0,1.828,2.757.327.327,0,0,1,.079.268c-.021.056-.164.092-.253.092-1.658,0-3.316.011-4.974-.007a2.507,2.507,0,0,1-2.484-2.487c0-.157,0-.314,0-.471q0-19.177-.006-38.355a2.679,2.679,0,0,1,1.089-2.326,2.447,2.447,0,0,1,1.523-.42q14.452,0,28.9,0a2.392,2.392,0,0,1,2.315,1.3,2.915,2.915,0,0,1,.3,1.153c.046.77.014,1.545.014,2.319q0,18.27,0,36.539a2.559,2.559,0,0,1-2.439,2.733c-1.5.034-3,.017-4.5.016A2.739,2.739,0,0,1,523.3,247.549Zm-10.081-24.058v0h12.635a2.2,2.2,0,0,0,.435-.021.872.872,0,0,0,.709-.633.971.971,0,0,0-1.02-1.251c-3.663.021-7.325.009-10.988.008-.6,0-.609,0-.6-.621a8.948,8.948,0,0,0-.4-3.212,6.29,6.29,0,0,0-2.966-3.453c-.288-.161-.3-.255-.149-.556a6.4,6.4,0,0,0,.566-1.387A4.553,4.553,0,0,0,511,209.08a4.648,4.648,0,0,0-2.792-2.262,4.445,4.445,0,0,0-3.6.416,4.683,4.683,0,0,0-1.662,6.593c.126.2.08.346-.13.47a8.062,8.062,0,0,0-.923.6,6.438,6.438,0,0,0-2.5,5.256c-.006.683.023,1.368-.009,2.05a1.13,1.13,0,0,0,1.3,1.3C504.861,223.473,509.039,223.491,513.218,223.491Zm8.709-9.188c1.365,0,2.731.006,4.1,0a.97.97,0,1,0-.078-1.931q-2.753-.007-5.506,0c-.839,0-1.679,0-2.518,0a.953.953,0,0,0-1.06.816A.972.972,0,0,0,517.9,214.3C519.241,214.307,520.584,214.3,521.927,214.3Zm.02,2.3h0c-1.365,0-2.731,0-4.1,0a.944.944,0,0,0-.952.643.924.924,0,0,0,.932,1.248c1.253.012,2.507,0,3.76,0,1.455,0,2.91.008,4.365-.009a1.37,1.37,0,0,0,.721-.191.916.916,0,0,0,.3-1.112.968.968,0,0,0-.9-.582C524.7,216.6,523.323,216.6,521.947,216.6Zm0-6.571v0h2.386c.594,0,1.188.007,1.781,0a.851.851,0,0,0,.881-.636.944.944,0,0,0-.979-1.252q-4.083-.009-8.166,0a1.46,1.46,0,0,0-.234.016.948.948,0,0,0-.724.668.916.916,0,0,0,.922,1.2C519.187,210.04,520.565,210.033,521.943,210.033Z" transform="translate(-494.528 -196.036)" fill="none"/>
        <path id="Path_295" data-name="Path 295" d="M582.13,172.989q0,9.7,0,19.394A2.471,2.471,0,0,1,579.463,195c-1.116,0-.93.035-.93-.9q-.006-17.5,0-34.99a4.281,4.281,0,0,0-2.406-4.033,5.425,5.425,0,0,0-1.834-.473,14.729,14.729,0,0,0-1.88-.028h-23.76c-.067,0-.134,0-.2,0-.415-.01-.452-.053-.46-.469a3.374,3.374,0,0,1,.37-1.945,2.534,2.534,0,0,1,2.08-1.222c.278-.022.56,0,.84,0l28.23,0a2.536,2.536,0,0,1,2.622,2.628Q582.131,163.275,582.13,172.989Z" transform="translate(-540.598 -149.032)" fill="none"/>
        <g transform="matrix(1, 0, 0, 1, -50.22, -157.53)" filter="url(#Path_296)">
          <path id="Path_296-2" data-name="Path 296" d="M567.213,451.072c-2.027,0-4.055-.006-6.082.005a1.207,1.207,0,0,1-.817-.309,10.911,10.911,0,0,1-3.314-4.6,10.269,10.269,0,0,1-.686-4.877,10.846,10.846,0,0,1,5.348-8.457,10.492,10.492,0,0,1,6.585-1.508,10.769,10.769,0,0,1,5.227,1.915,11.067,11.067,0,0,1,3.912,4.834,10.631,10.631,0,0,1,.677,6,10.869,10.869,0,0,1-3.877,6.7,1.21,1.21,0,0,1-.825.3C571.313,451.067,569.263,451.072,567.213,451.072Zm6.879-8.786c0-.8.007-1.591,0-2.386a.969.969,0,0,0-1.082-1.074q-.975,0-1.949,0c-.273,0-.407-.1-.4-.4.015-.661.012-1.322,0-1.983a.97.97,0,0,0-1.073-1.053q-2.336-.006-4.672,0a1.036,1.036,0,0,0-1.123,1.133c0,.639-.01,1.277,0,1.916.006.292-.109.4-.4.392-.638-.013-1.277-.01-1.916,0a1.022,1.022,0,0,0-1.115,1.1q-.007,2.37,0,4.739a.954.954,0,0,0,1,1.024c.661.015,1.322,0,1.983.006.4,0,.444.042.447.442.005.639,0,1.277,0,1.916a.971.971,0,0,0,1.055,1.07q2.4.013,4.806,0a.888.888,0,0,0,1-1c.01-.661,0-1.322.008-1.983,0-.378.085-.45.459-.451.639,0,1.277.005,1.916,0,.721-.006,1.045-.333,1.048-1.057C574.1,443.855,574.093,443.07,574.092,442.286Z" transform="translate(-497.76 -241.97)" fill="none"/>
        </g>
        <path id="Path_297" data-name="Path 297" d="M538.067,249.265c-4.178,0-8.356-.017-12.534.013a1.13,1.13,0,0,1-1.3-1.3c.033-.682,0-1.366.009-2.05a6.438,6.438,0,0,1,2.5-5.256,8.06,8.06,0,0,1,.923-.6c.211-.124.256-.273.13-.47a4.683,4.683,0,0,1,1.662-6.593,4.445,4.445,0,0,1,3.6-.416,4.648,4.648,0,0,1,2.792,2.262,4.552,4.552,0,0,1,.436,3.286,6.394,6.394,0,0,1-.566,1.387c-.147.3-.138.394.149.556a6.29,6.29,0,0,1,2.966,3.453,8.945,8.945,0,0,1,.4,3.212c-.01.619,0,.621.6.621,3.663,0,7.325.013,10.988-.008a.971.971,0,0,1,1.02,1.251.872.872,0,0,1-.709.633,2.2,2.2,0,0,1-.435.021H538.067Zm-6.331-1.893v0c.392,0,.784-.007,1.175,0,.268.007.39-.1.385-.375-.008-.414-.012-.829,0-1.243a.887.887,0,0,1,.934-.926.917.917,0,0,1,.948.956q.018.6.006,1.209c-.006.269.1.387.375.38.436-.011.874-.02,1.309,0,.313.016.433-.119.426-.408-.013-.559,0-1.121-.047-1.678a4.423,4.423,0,0,0-2.812-3.777,1.267,1.267,0,0,0-1.083-.05,4.525,4.525,0,0,1-3.215.024,1.2,1.2,0,0,0-.633-.131,4.831,4.831,0,0,0-2.377,1.606c-1.013,1.232-.984,2.685-.921,4.146,0,.091.2.241.31.248.468.029.94,0,1.41.017.282.007.374-.123.369-.386-.009-.392-.006-.784,0-1.176a.927.927,0,0,1,.956-.985.916.916,0,0,1,.929.977c.012.4.008.806,0,1.209,0,.257.119.363.37.36C530.952,247.368,531.344,247.372,531.736,247.372Zm0-7.521a2.747,2.747,0,0,0,2.755-2.746,2.75,2.75,0,1,0-5.5.023A2.75,2.75,0,0,0,531.736,239.852Z" transform="translate(-519.377 -221.811)"/>
        <path id="Path_298" data-name="Path 298" d="M693.207,288.3c-1.343,0-2.686,0-4.029,0a.972.972,0,0,1-1.037-1.114.954.954,0,0,1,1.06-.816c.839-.008,1.679,0,2.518,0q2.753,0,5.507,0a.97.97,0,1,1,.078,1.931C695.938,288.308,694.572,288.3,693.207,288.3Z" transform="translate(-665.808 -270.035)"/>
        <path id="Path_299" data-name="Path 299" d="M693.208,326.132c1.377,0,2.753,0,4.13,0a.968.968,0,0,1,.9.582.916.916,0,0,1-.3,1.112,1.371,1.371,0,0,1-.721.191c-1.455.017-2.91.009-4.365.009-1.253,0-2.507.008-3.76,0a.924.924,0,0,1-.932-1.248.944.944,0,0,1,.952-.643c1.365,0,2.731,0,4.1,0Z" transform="translate(-665.79 -305.563)"/>
        <path id="Path_300" data-name="Path 300" d="M693.249,248.608c-1.378,0-2.756.007-4.133,0a.916.916,0,0,1-.922-1.2.948.948,0,0,1,.724-.668,1.459,1.459,0,0,1,.234-.016q4.083,0,8.166,0a.944.944,0,0,1,.979,1.252.851.851,0,0,1-.881.636c-.594.011-1.187,0-1.781,0h-2.386Z" transform="translate(-665.834 -234.611)"/>
        <path id="Path_301" data-name="Path 301" d="M608.567,476.752c0,.784,0,1.569,0,2.353,0,.724-.327,1.051-1.049,1.057-.638.005-1.277,0-1.916,0-.374,0-.455.073-.459.451-.008.661,0,1.322-.008,1.983a.888.888,0,0,1-1,1q-2.4.01-4.806,0a.971.971,0,0,1-1.055-1.07c0-.639,0-1.277,0-1.916,0-.4-.049-.44-.447-.442-.661,0-1.322.009-1.983-.006a.953.953,0,0,1-.995-1.024q-.007-2.37,0-4.739a1.022,1.022,0,0,1,1.115-1.1c.639-.005,1.277-.009,1.916,0,.288.006.4-.1.4-.392-.013-.638-.008-1.277,0-1.916a1.036,1.036,0,0,1,1.123-1.133q2.336-.006,4.671,0a.97.97,0,0,1,1.073,1.053c.009.661.013,1.322,0,1.983-.007.3.127.4.4.4q.975,0,1.949,0a.969.969,0,0,1,1.082,1.074C608.573,475.161,608.567,475.957,608.567,476.752Zm-1.893.024h0c0-.358,0-.717,0-1.075,0-.425-.05-.479-.486-.484-.616-.007-1.231,0-1.847,0a.983.983,0,0,1-1.1-1.1c0-.627,0-1.254,0-1.881,0-.387-.065-.451-.449-.453-.705,0-1.41,0-2.116,0-.392,0-.466.071-.469.472,0,.593,0,1.187,0,1.78a1.06,1.06,0,0,1-1.222,1.2c-.593,0-1.186,0-1.779-.012-.295-.006-.436.118-.435.417,0,.75.005,1.5,0,2.25,0,.285.115.4.4.391.615-.015,1.233.024,1.847-.014a1.061,1.061,0,0,1,1.193,1.222c-.02.615,0,1.231,0,1.847,0,.276.115.372.387.368.727-.012,1.455,0,2.183,0,.441,0,.466-.029.467-.485,0-.649-.008-1.3,0-1.948a.939.939,0,0,1,.989-.989c.683-.009,1.366-.015,2.048,0,.3.007.4-.106.391-.391C606.664,477.515,606.674,477.146,606.674,476.776Z" transform="translate(-582.46 -433.971)"/>
        <path id="Path_302" data-name="Path 302" d="M548.1,322.454c-.392,0-.784,0-1.175,0-.25,0-.372-.1-.37-.36,0-.4.008-.806,0-1.209a.916.916,0,0,0-.929-.977.927.927,0,0,0-.956.985c-.008.392-.01.784,0,1.176.006.263-.087.393-.369.386-.47-.012-.941.012-1.41-.017-.113-.007-.306-.157-.31-.248-.063-1.461-.091-2.915.921-4.146a4.831,4.831,0,0,1,2.377-1.606,1.2,1.2,0,0,1,.633.131,4.525,4.525,0,0,0,3.215-.024,1.267,1.267,0,0,1,1.083.05,4.423,4.423,0,0,1,2.812,3.777c.045.557.034,1.118.047,1.678.007.289-.113.425-.426.408-.435-.023-.873-.014-1.31,0-.275.007-.381-.111-.375-.38q.013-.6-.006-1.209a.917.917,0,0,0-.948-.956.887.887,0,0,0-.934.926c-.017.414-.013.828,0,1.242.006.275-.117.382-.385.375-.392-.01-.784,0-1.175,0Z" transform="translate(-535.742 -296.892)" fill="#fff"/>
        <path id="Path_303" data-name="Path 303" d="M571.625,256.247a2.75,2.75,0,0,1-2.745-2.723,2.75,2.75,0,1,1,2.745,2.723Z" transform="translate(-559.266 -238.206)" fill="#fff"/>
        <path id="Path_304" data-name="Path 304" d="M622.833,492.879c0,.369-.01.739,0,1.108.01.286-.1.4-.391.391-.682-.015-1.366-.009-2.048,0a.939.939,0,0,0-.989.989c-.011.649,0,1.3,0,1.948,0,.455-.027.483-.467.485-.728,0-1.455-.008-2.183,0-.271,0-.39-.092-.387-.368.007-.616-.015-1.232,0-1.847a1.061,1.061,0,0,0-1.193-1.222c-.613.038-1.231,0-1.846.014-.29.007-.407-.106-.4-.391.006-.75.005-1.5,0-2.25,0-.3.14-.422.435-.417.593.011,1.186.012,1.779.012a1.06,1.06,0,0,0,1.222-1.2c0-.593,0-1.187,0-1.78,0-.4.077-.472.469-.472.705,0,1.411,0,2.116,0,.384,0,.446.066.449.453,0,.627,0,1.254,0,1.881a.983.983,0,0,0,1.1,1.1c.616.009,1.231,0,1.847,0,.436,0,.484.059.486.484,0,.358,0,.717,0,1.075Z" transform="translate(-598.619 -450.073)" fill="none"/>
      </g>
    </g>
    <g id="UUL6FD.tif" transform="translate(389.472 2898.877)">
      <g id="Group_56" data-name="Group 56" transform="translate(480.528 30.3)">
        <g transform="matrix(1, 0, 0, 1, -764, -382.18)" filter="url(#Path_282)">
          <path id="Path_282-2" data-name="Path 282" d="M480.557,104.845c0-7.682.048-15.365-.028-23.046a3.664,3.664,0,0,1,3.843-3.855c1.569.091,3.148.009,4.722.023a1.255,1.255,0,0,1,1.379,1.148c.076.806-.474,1.377-1.406,1.39-1.508.022-3.016.007-4.524.011-1.226,0-1.5.271-1.5,1.48q0,22.781-.006,45.561c0,1.344.247,1.593,1.585,1.593H510.24c.876,0,.949-.1.687-.9a12.937,12.937,0,0,1,4.264-14.319,13.2,13.2,0,0,1,7.311-2.856c.878-.077.908-.119.908-1.018q0-14.047,0-28.094c0-1.161-.291-1.441-1.474-1.443-1.752,0-3.5.007-5.256-.006-.874-.006-1.407-.437-1.463-1.133a1.2,1.2,0,0,1,1.183-1.4c2.151-.027,4.3-.061,6.452.021a3.321,3.321,0,0,1,3.01,3.046c.047.617.034,1.239.034,1.858q0,13.615,0,27.231c0,1.1-.006,1.12,1.047,1.42a13.041,13.041,0,0,1,9.094,16.045A12.62,12.62,0,0,1,529.9,135.5a13.081,13.081,0,0,1-16.639-3.063,1.836,1.836,0,0,0-1.576-.755q-13.638.029-27.276.012a3.507,3.507,0,0,1-3.582-2.124,4.071,4.071,0,0,1-.259-1.55q-.024-11.589-.011-23.179Zm53.43,19.349a10.587,10.587,0,1,0-10.547,10.495A10.588,10.588,0,0,0,533.986,124.194Z" transform="translate(283.47 310.58)"/>
        </g>
        <g transform="matrix(1, 0, 0, 1, -764, -382.18)" filter="url(#Path_283)">
          <path id="Path_283-2" data-name="Path 283" d="M574.674,42.8c-2.7,0-5.407.007-8.11,0a2.969,2.969,0,0,1-3.169-3.144c-.006-1.062-.011-2.124,0-3.186a2.887,2.887,0,0,1,2.928-2.956c1.019-.015,2.039-.02,3.058,0a1.031,1.031,0,0,0,1.119-.678,4.5,4.5,0,0,1,8.109.01,1.018,1.018,0,0,0,1.078.671c1.151-.038,2.3-.018,3.456-.006a2.819,2.819,0,0,1,2.87,2.848c.02,1.15.018,2.3,0,3.451a2.853,2.853,0,0,1-2.963,2.98C580.259,42.83,577.466,42.8,574.674,42.8Zm0-2.544c2.636,0,5.272.006,7.907,0,.8,0,.965-.172.974-.914.01-.818-.018-1.637.01-2.454.021-.638-.3-.883-.883-.887-.886-.005-1.774.038-2.657-.015a1.311,1.311,0,0,0-1.549.913,2.654,2.654,0,0,1-.562.813,4.481,4.481,0,0,1-7.428-1.077c-.207-.393-.422-.647-.892-.64-.952.014-1.9.012-2.857.01a.707.707,0,0,0-.807.815c.006.8-.011,1.592,0,2.388.016.942.126,1.047,1.1,1.049Q570.85,40.265,574.671,40.26Zm-.094-3.592a2,2,0,0,0,1.948-1.948,2.094,2.094,0,0,0-1.917-1.94,1.969,1.969,0,0,0-1.975,1.914A1.872,1.872,0,0,0,574.577,36.668Z" transform="translate(211.64 351.88)"/>
        </g>
        <path id="Path_284" data-name="Path 284" d="M612.6,156.155c-.51,0-1.02.013-1.53,0a1.21,1.21,0,0,1-1.31-1.2,1.191,1.191,0,0,1,1.229-1.283c.973-.046,1.95-.012,2.925-.022.866-.009.931-.079.935-.96,0-.929-.006-1.859.009-2.788a1.256,1.256,0,1,1,2.505-.08c.047.95.022,1.9.029,2.854.006.879.1.974,1.012.978.732,0,1.463-.014,2.195,0,.9.02,1.437.495,1.437,1.233,0,.767-.564,1.265-1.464,1.274-.842.009-1.685.014-2.527,0-.5-.009-.654.254-.652.7.005,1,.016,1.992-.014,2.987a1.25,1.25,0,0,1-1.078,1.38,1.2,1.2,0,0,1-1.432-1.2c-.039-1.039-.031-2.08-.009-3.12.011-.533-.179-.778-.732-.75-.509.026-1.02.005-1.529.005Z" transform="translate(-592.557 -132.788)"/>
        <path id="Path_285" data-name="Path 285" d="M543.977,413.007c2.946,0,5.891.005,8.837,0a1.217,1.217,0,0,1,1.242.811,1.109,1.109,0,0,1-.363,1.371,1.667,1.667,0,0,1-.917.3q-8.8.022-17.607,0a1.2,1.2,0,0,1-1.323-1.257,1.231,1.231,0,0,1,1.361-1.217c2.923-.007,5.847,0,8.77,0Z" transform="translate(-526.749 -362.065)"/>
        <path id="Path_286" data-name="Path 286" d="M543.813,370.222c-2.839,0-5.678.015-8.516-.019a2,2,0,0,1-1.2-.4,1.151,1.151,0,0,1,.469-1.993,3.453,3.453,0,0,1,.984-.114q8.283-.012,16.567-.006a4.073,4.073,0,0,1,.924.076,1.2,1.2,0,0,1,.953,1.327,1.264,1.264,0,0,1-1.137,1.114,6.121,6.121,0,0,1-.665.02Q548,370.224,543.813,370.222Z" transform="translate(-526.616 -322.779)"/>
        <path id="Path_287" data-name="Path 287" d="M544,322.713q4.319,0,8.637,0c.963,0,1.484.426,1.5,1.206.018.816-.509,1.3-1.492,1.305q-8.438.012-16.876,0a5.943,5.943,0,0,1-.8-.05,1.166,1.166,0,0,1-1.113-1.311,1.22,1.22,0,0,1,1.234-1.145c1.594-.017,3.189-.007,4.784-.008Z" transform="translate(-526.762 -283.79)"/>
        <path id="Path_288" data-name="Path 288" d="M543.967,280c-2.927,0-5.853.005-8.78,0a1.226,1.226,0,0,1-1.321-1.194c-.027-.738.405-1.188,1.235-1.273a6.268,6.268,0,0,1,.664-.025c1.352.006,2.7.025,4.057.023q5.986-.007,11.972-.025c.332,0,.665.009,1,.028.906.053,1.382.51,1.354,1.292-.025.73-.535,1.172-1.4,1.174Q548.357,280,543.967,280Z" transform="translate(-526.766 -244.598)"/>
        <path id="Path_289" data-name="Path 289" d="M21.174,10.617A10.587,10.587,0,1,1,10.666,0,10.563,10.563,0,0,1,21.174,10.617ZM9.306,13.081c-.268-.423-.446-.672-.591-.938-.547-1.01-1.077-2.029-1.625-3.039a1.273,1.273,0,0,0-2.086-.476,1.4,1.4,0,0,0-.132,1.723c.984,1.852,1.971,3.7,2.99,5.537a1.277,1.277,0,0,0,2.307.186q2.3-2.788,4.59-5.587c.9-1.094,1.805-2.18,2.685-3.288a1.29,1.29,0,0,0-.095-1.794,1.225,1.225,0,0,0-1.779.122,3.074,3.074,0,0,0-.263.3q-1.918,2.33-3.835,4.66C10.788,11.314,10.1,12.135,9.306,13.081Z" transform="matrix(0.985, -0.174, 0.174, 0.985, 30.612, 43.979)" fill="#fff"/>
        <path id="Path_290" data-name="Path 290" d="M591.2,77.261q-3.821,0-7.641,0c-.972,0-1.082-.106-1.1-1.049-.014-.8,0-1.592,0-2.388a.707.707,0,0,1,.807-.815c.953,0,1.9,0,2.857-.01.47-.007.684.246.892.64a4.481,4.481,0,0,0,7.428,1.077A2.653,2.653,0,0,0,595,73.9a1.311,1.311,0,0,1,1.549-.913c.883.053,1.771.009,2.657.015.583,0,.9.249.883.887-.027.817,0,1.636-.01,2.454-.009.742-.175.911-.974.914C596.467,77.268,593.831,77.261,591.2,77.261Z" transform="translate(-568.884 -67.301)" fill="#fff"/>
        <path id="Path_291" data-name="Path 291" d="M634.8,52.825a1.872,1.872,0,0,1-1.944-1.973,1.969,1.969,0,0,1,1.975-1.914,2.094,2.094,0,0,1,1.917,1.94A2,2,0,0,1,634.8,52.825Z" transform="translate(-612.578 -46.456)" fill="#fff"/>
        <path id="Path_292" data-name="Path 292" d="M3.606,6.188c.611-.731,1.146-1.367,1.674-2.007q1.486-1.8,2.966-3.6a2.383,2.383,0,0,1,.2-.23A.947.947,0,0,1,9.825.254,1,1,0,0,1,9.9,1.641c-.68.857-1.382,1.7-2.076,2.542Q6.049,6.344,4.273,8.5a.988.988,0,0,1-1.784-.144C1.7,6.941.938,5.51.178,4.078a1.079,1.079,0,0,1,.1-1.333.984.984,0,0,1,1.613.368c.424.78.834,1.569,1.257,2.35C3.261,5.669,3.4,5.861,3.606,6.188Z" transform="matrix(0.985, -0.174, 0.174, 0.985, 37.71, 49.327)"/>
      </g>
    </g>
  </g>
</svg>
