<svg xmlns="http://www.w3.org/2000/svg" viewBox="0 0 2200.276 630.465"><title>DocSpera - Full Logo Blue</title><!--Design by AshAlom--><path d="M2081.881 457.564c-10.97 5.755-22.602 9.269-34.87 10.579-12.28 1.298-23.116 1.959-32.518 1.959-18.806 0-35.261-5.093-49.365-15.28s-21.157-27.034-21.157-50.541c0-21.94 6.391-37.611 19.198-47.015 12.794-9.403 29.115-15.671 48.974-18.805 2.608 0 5.742-.392 9.403-1.175 3.648-.784 7.836-1.433 12.537-1.959 22.982-3.135 34.478-9.918 34.478-20.374 0-7.835-4.053-12.928-12.146-15.28-8.106-2.35-15.549-3.526-22.333-3.526-7.321 0-13.847 1.052-19.589 3.134-5.754 2.094-5.932 4.243-11.234 7.658-11.034 7.107-53.979 6.987-53.979 6.987 2.081-16.186 9.58-32.397 22.117-42.853 14.104-12.011 34.208-18.022 60.336-18.022 29.249 0 51.189 4.972 65.82 14.888 15.146 10.456 22.724 25.075 22.724 43.88v71.306c0 20.899-3.795 37.22-11.363 48.973-7.579 11.754-16.591 20.251-27.033 25.466zm-12.538-96.379c-7.321 3.66-17.507 7.052-30.559 10.186l-18.022 3.918c-9.403 2.62-16.197 6.012-20.373 10.186-3.66 5.754-5.484 11.496-5.484 17.239 0 7.836 2.35 14.104 7.052 18.806 4.701 4.187 11.484 6.268 20.373 6.268 14.618 0 26.115-4.175 34.477-12.537 8.35-8.35 12.537-19.846 12.537-34.477v-19.589zm-244.73 108.917V360.401c0-20.373 2.999-37.476 9.011-51.325 5.999-13.835 14.227-24.94 24.682-33.302 9.918-7.835 21.549-13.577 34.87-17.239 13.321-3.648 27.034-5.485 41.137-5.485h7.836v37.928c0 9.778-7.927 17.705-17.705 17.705h-.317c-15.157 0-26.384 3.66-33.693 10.971-7.322 7.321-10.97 18.805-10.97 34.477v80.521c0 19.578-15.871 35.448-35.448 35.448h-19.403zm-51.971-68.172l39.568-3.918c-5.754 21.94-17.113 42.583-33.298 54.067-16.198 12.023-36.571 18.022-61.119 18.022-29.775 0-53.026-9.66-69.738-28.993-16.724-18.805-25.075-45.704-25.075-80.708 0-33.424 8.094-59.552 24.291-78.357 16.712-19.32 39.963-28.993 69.738-28.993 31.343 0 55.634 9.404 72.872 28.209 16.712 19.332 25.075 46.232 25.075 80.709v8.619c0 2.62-.269 4.445-.784 5.486h-135.558c.515 16.198 4.432 28.209 11.754 36.045 6.782 8.361 16.969 12.537 30.559 12.537 8.876 0 16.455-1.824 22.724-5.485 1.567-.515 2.999-1.433 4.309-2.743l4.309-4.309c.514-1.568 2.473-3.649 5.877-6.269 3.392-2.609 8.227-3.919 14.496-3.919zm-94.029-61.118h79.925c-1.052-14.104-4.701-24.549-10.969-31.343-6.796-7.31-16.456-10.97-28.993-10.97-11.496 0-20.899 3.66-28.209 10.97-7.322 7.321-11.239 17.765-11.754 31.343zM1437.27 526.729h-17.745V347.291c0-37.097 10.713-62.172 32.126-75.224 21.426-13.063 44.664-19.589 69.738-19.589 13.59 0 26.911 2.229 39.962 6.661 13.064 4.432 23.507 11.619 31.343 21.548 15.157 19.32 22.724 45.705 22.724 79.141 0 32.911-7.566 59.284-22.724 79.142-15.671 20.373-35.775 30.559-60.335 30.559-13.051 0-24.548-2.62-34.477-7.836-10.443-6.268-18.806-14.374-25.075-24.291v53.789c0 19.627-15.91 35.538-35.537 35.538zm124.865-164.55c0-20.9-3.918-36.829-11.754-47.799-7.836-10.97-19.063-16.455-33.694-16.455-14.104 0-25.075 5.485-32.91 16.455-7.309 10.97-10.97 26.899-10.97 47.799 0 18.805 3.918 33.693 11.754 44.664 8.362 10.443 19.589 15.671 33.694 15.671 13.59 0 24.291-5.485 32.127-16.455 7.835-10.456 11.753-25.075 11.753-43.88zm-336.23 35.833s40.552-.02 51.022 8.216c5.164 4.062 6.693 9.292 14.015 14.508 7.835 5.228 18.279 7.836 31.343 7.836 9.402 0 17.495-1.824 24.291-5.486 6.268-3.648 9.403-8.619 9.403-14.887 0-9.404-10.97-16.456-32.911-21.157-9.403-1.568-16.455-3.134-21.156-4.702-27.695-6.782-46.231-14.888-55.635-24.291-10.455-9.403-15.671-21.94-15.671-37.612 0-19.847 7.566-36.301 22.723-49.365 15.672-12.011 36.045-18.022 61.119-18.022 27.155 0 48.839 6.012 65.036 18.022 15.146 13.064 23.885 32.977 24.937 53.864l-34.34-2.932c-9.93 0-17.508-4.432-22.724-13.321a1543.375 1543.375 0 0 1-6.268-6.268c-6.268-4.702-14.887-7.052-25.857-7.052-10.456 0-18.292 1.568-23.508 4.702-4.701 3.134-7.052 7.835-7.052 14.104 0 7.898 12.111 14.627 36.344 20.188 2.625.602 5.237 1.285 7.818 2.056a66.87 66.87 0 0 0 4.812 1.263c1.708.382 28.314 8.351 46.739 16.084 18.27 7.668 30.314 25.534 30.441 45.348l.001.471c0 22.993-8.362 40.746-25.075 53.283-15.671 11.496-39.178 17.239-70.521 17.239-29.776 0-51.985-6-66.604-18.022-15.158-12.011-22.724-29.507-22.724-52.5v-1.567zm-45.174 3.918l39.179-3.918c-5.754 21.94-16.724 42.583-32.91 54.067-16.198 12.023-36.571 18.022-61.119 18.022-29.775 0-53.026-9.66-69.738-28.993-16.724-18.805-25.074-45.704-25.074-80.708 0-33.424 8.093-59.552 24.291-78.357 16.712-19.32 39.962-28.993 69.738-28.993 31.343 0 55.634 9.404 72.873 28.209 9.404 11.496 16.062 28.186 20.249 43.331 0 0-41.974 1.661-53.646-5.538-4.968-3.064-6.309-6.965-8.916-9.585-6.796-7.31-16.456-10.97-28.993-10.97-11.496 0-20.899 3.66-28.209 10.97-9.403 10.456-14.104 27.695-14.104 51.716 0 24.034 4.702 41.015 14.104 50.933 6.782 8.361 16.969 12.537 30.559 12.537 8.876 0 16.455-1.824 22.724-5.485 1.567-.515 2.999-1.433 4.309-2.743l4.309-4.309c1.041-1.568 3.134-3.649 6.268-6.269 3.137-2.607 7.838-3.917 14.106-3.917zm-317.072 45.447c-10.97-9.403-18.806-22.062-23.507-38.003-4.702-15.929-7.052-32.518-7.052-49.757 0-14.104 1.959-28.209 5.876-42.314 3.918-14.104 10.052-25.858 18.414-35.261 13.578-15.672 31.073-24.94 52.5-27.817 21.414-2.864 40.745-1.175 57.984 5.093 19.846 7.836 34.478 21.426 43.88 40.747 8.876 17.239 13.321 37.354 13.321 60.335 0 16.724-1.836 31.086-5.485 43.097-3.661 12.023-8.362 22.209-14.104 30.559-12.537 17.239-28.478 27.952-47.798 32.127-17.239 4.702-34.612 5.093-52.108 1.175-17.508-3.917-31.478-10.577-41.921-19.981zm37.612-137.909c-10.97 12.023-15.941 29.911-14.888 53.675 1.041 23.777 5.485 40.354 13.321 49.757 3.135 4.188 8.62 7.713 16.455 10.579 7.835 2.877 15.794 3.134 23.899.784 8.093-2.351 15.28-8.228 21.548-17.631 6.268-9.403 9.66-24.547 10.186-45.447 0-18.805-3.012-32.91-9.011-42.314-6.011-9.403-12.929-15.402-20.765-18.022-7.836-2.607-15.671-2.742-23.507-.391-7.836 2.35-13.59 5.362-17.238 9.01zM773.038 195.85h17.908c19.537 0 35.375 15.838 35.375 35.375v144.064c0 37.097-10.713 62.172-32.126 75.224-21.426 13.063-44.664 19.589-69.738 19.589-13.59 0-26.911-2.229-39.962-6.661-13.064-4.432-23.508-11.619-31.343-21.548-15.157-19.32-22.724-45.705-22.724-79.141 0-32.911 7.566-59.284 22.724-79.142 15.671-20.373 35.775-30.559 60.335-30.559 13.051 0 24.548 2.62 34.477 7.836 10.443 6.268 18.806 14.374 25.075 24.291V195.85zm-89.327 164.551c0 20.9 3.918 36.829 11.753 47.799 7.836 10.97 19.063 16.455 33.694 16.455 14.104 0 25.075-5.485 32.91-16.455 7.309-10.97 10.97-26.899 10.97-47.799 0-18.805-3.918-33.693-11.753-44.664-8.362-10.443-19.589-15.671-33.694-15.671-13.59 0-24.291 5.485-32.127 16.455-7.835 10.456-11.753 25.075-11.753 43.88zM268.99 550.465c-104.209 0-188.99-84.78-188.99-188.99 0-104.209 84.781-188.99 188.99-188.99l108.99.003v80l-108.99-.003c-60.098 0-108.99 48.893-108.99 108.99s48.893 108.99 108.99 108.99 108.99-48.893 108.99-108.99V252.477h80v108.997c0 104.21-84.78 188.991-188.99 188.991zm188.952-337.981h92.486m.038-.006c0-22.091-17.909-40-40-40H457.98v80h52.485c22.092 0 40.001-17.908 40.001-40zm-132.485-40.015V79.977m39.999 40.021c0-22.091-17.909-40-40-40s-40 17.909-40 40v52.486h80v-52.486z" fill="#0096fa"/></svg>
