<svg id="Layer_1" data-name="Layer 1" xmlns="http://www.w3.org/2000/svg" viewBox="0 0 24.64 25.69"><defs><style>.cls-1{fill:#0096fa;}</style></defs><g id="Group_83" data-name="Group 83"><g id="Group_82" data-name="Group 82"><path id="Path_206" data-name="Path 206" class="cls-1" d="M24.64,23.53A2,2,0,0,1,23.9,25a2.54,2.54,0,0,1-1.7.65,2.41,2.41,0,0,1-1.76-.79l-8.12-9-8.16,9a2.34,2.34,0,0,1-1.72.75A2.57,2.57,0,0,1,.74,25,1.88,1.88,0,0,1,0,23.53a2,2,0,0,1,.6-1.36l8.72-9.54L1,3.48a1.81,1.81,0,0,1-.6-1.36A1.92,1.92,0,0,1,1.08.63,2.47,2.47,0,0,1,2.76,0,2.37,2.37,0,0,1,4.52.79l7.8,8.65L20.12.79A2.27,2.27,0,0,1,21.84,0a2.54,2.54,0,0,1,1.7.63,1.91,1.91,0,0,1,.74,1.49,1.85,1.85,0,0,1-.6,1.36l-8.36,9.15L24,22.17A2,2,0,0,1,24.64,23.53Z" transform="translate(0 0)"/></g></g></svg>