<svg id="Layer_1" data-name="Layer 1" xmlns="http://www.w3.org/2000/svg" viewBox="0 0 315.56 315.72"><defs><style>.cls-1{fill:#1d88f5;}.cls-2{fill:#fff;}</style></defs><g id="gntXvu.tif"><path class="cls-1" d="M658.29,275.56H585.2c-5.48,0-5.6.12-5.62,5.7,0,8.54.11,17.08-.07,25.62-.08,3.59,1.08,5.05,4.81,4.94,7.13-.19,14.28,0,21.42-.05,4.4,0,4.38,2.9,4.45,6s-.49,5.45-4.53,5.35c-7.14-.19-14.29.07-21.42-.12-3.43-.1-4.77,1.07-4.7,4.57.16,8.54.05,17.09.06,25.63,0,6.12,0,6.12,6,6.12H686.4q22.68,0,45.37,0c5.18,0,5.38-.23,5.39-5.51,0-8.26,0-16.52,0-24.78,0-5.95-.07-6-6.19-6-6.44,0-12.89-.14-19.32,0-3.64.1-5.41-.85-5.23-4.93.27-5.82.42-6.37,5.1-6.39,6.86,0,13.72-.13,20.58,0,3.7.09,5.26-1.07,5.14-5.06-.27-8.39-.07-16.8-.08-25.2,0-5.91-.09-6-6.19-6ZM535,317.58C534.9,308,527,300,517.7,300a17.54,17.54,0,0,0-17.19,17.6A17.31,17.31,0,0,0,518,334.89C527.1,334.84,535,326.79,535,317.58Zm264,17.29a17.34,17.34,0,0,0,17.11-17.58A17.64,17.64,0,0,0,799,300c-9.39-.12-17.21,7.81-17.21,17.48A17.08,17.08,0,0,0,799,334.87ZM559.41,433a17.47,17.47,0,0,0,17.89-16.78c.24-9.44-7.47-17.17-17.28-17.34a17.18,17.18,0,0,0-17.64,16.51A17.39,17.39,0,0,0,559.41,433ZM675.47,176.84A17.47,17.47,0,0,0,658,159.58a17.43,17.43,0,0,0,.34,34.85A17.44,17.44,0,0,0,675.47,176.84ZM577.27,219a17.44,17.44,0,0,0-34.88,0c-.11,9.35,7.89,17.31,17.42,17.34A17.59,17.59,0,0,0,577.27,219Zm162.23,0a17.23,17.23,0,1,0,34.45.06c.12-9.51-7.64-17.11-17.43-17.07A17,17,0,0,0,739.5,219ZM675.44,458.31a17.13,17.13,0,1,0-34.26-.43,17.13,17.13,0,1,0,34.26.43Zm81.3-25.3A16.94,16.94,0,0,0,774,415.78c-.15-9.89-7.46-16.95-17.51-16.9a17.07,17.07,0,1,0,.29,34.13ZM602.3,256c-2.28-1.76-4-4-5.32-3.86-1.66.22-3.05,2.5-4.55,3.89,1.52,1.41,2.91,3.68,4.61,3.93C598.35,260.14,600,257.8,602.3,256Zm.08,123.2c-2.32-1.83-3.85-4-5.37-4s-3,2.17-4.54,3.4c1.42,1.48,2.65,3.84,4.29,4.17C598.1,383.05,599.92,380.87,602.38,379.19ZM575.1,317.46c.28-2.61-1-3.73-3.59-3.8s-3.77,1-3.8,3.64.87,3.89,3.62,3.82C573.79,321.06,575.42,320.35,575.1,317.46Zm-13.61-.12c.21-2.35-.75-3.75-3.54-3.68-2.46,0-3.92.78-4,3.59s1.06,3.8,3.67,3.88S561.71,320.33,561.49,317.34Zm187.5.19c.25-2.53-.79-3.8-3.52-3.85s-3.84.88-3.88,3.58.81,3.91,3.58,3.86C747.63,321.08,749.31,320.46,749,317.53Zm23.18,3.54c2.78.26,3.72-1.17,3.67-3.76-.05-2.32-.81-3.66-3.4-3.64s-4.18.79-4.17,3.82C768.28,320.33,769.74,321.13,772.17,321.07ZM593,246.2c-2.64-1.66-4.41-3.63-6.09-3.56-1.36.06-2.62,2.57-3.93,4,1.56,1.34,3,3.56,4.72,3.76C589,250.54,590.6,248.18,593,246.2Zm-21-9.12c2.55,1.76,4.25,3.84,5.93,3.81,1.39,0,2.75-2.51,4.12-3.9-1.5-1.39-2.88-3.65-4.55-3.89C576.15,232.92,574.46,235.18,572,237.08Zm90.55,193.18c-1.36-.89-2.63-2.32-4.1-2.56-2.56-.42-4.18.82-4.11,3.84.07,2.82,1.58,3.61,4,3.67C661.11,435.28,662,433.7,662.54,430.26Zm66.81-177.91c1.82-2.69,3.87-4.42,3.86-6.13,0-1.32-2.63-3.62-4.09-3.62s-3.8,2.5-3.77,3.85C725.4,248.14,727.48,249.78,729.35,252.35Zm-136.27,136c-2.69-1.73-4.46-3.75-6.16-3.69-1.39,0-2.69,2.58-4,4,1.49,1.27,3,3.48,4.5,3.56S590.54,390.22,593.08,388.36ZM743.75,399l.07-1.8c-2-1.09-3.9-2.71-6-3-.9-.12-3.08,2.51-3.06,3.86s2.17,3.79,3.24,3.72C740,401.62,741.84,400,743.75,399ZM739,231.3c-1.93,2.4-4.24,4-4.08,5.4.22,1.7,2.44,3.15,3.8,4.71,1.42-1.37,3.88-2.68,4-4.15S740.74,233.9,739,231.3ZM573.14,398.15c4.16,5.48,5.58,5.43,9-.1C578.61,392.22,577,392.2,573.14,398.15Zm-24.28-79.38.13-2.16c-1.43-1-2.75-2.45-4.33-2.83-2.34-.57-4,.6-4,3.34-.07,2.56,1,4.22,3.59,3.89C545.82,320.8,547.31,319.55,548.86,318.77Zm213.65-1.44c.18-2.63-1.3-3.64-3.78-3.68s-3.81,1.07-3.82,3.71,1.27,3.79,3.8,3.76S762.72,320.14,762.51,317.33Zm-43.93-56.39,1.81.14c1.14-1.93,2.82-3.76,3.17-5.82.15-.93-2.4-3.28-3.63-3.22-1.48.08-4,2.06-4,3.18C715.93,257.14,717.6,259,718.58,260.94Zm-56.07-42.73,0-1.82c-1.31-1-2.51-2.56-4-2.83-2.13-.41-4.17.29-4.22,3.27s1.32,4.42,4,4C659.87,220.56,661.15,219.11,662.51,218.21Zm56.78,155.25c-1.58,2.46-3.62,4.25-3.4,5.68s2.74,3.67,4.12,3.58,3.72-2.62,3.68-4S721.33,375.73,719.29,373.46Zm15.6,15.32c-2.34-1.93-3.86-4.16-5.37-4.15s-2.94,2.3-4.41,3.6c1.33,1.42,2.53,3.81,4,4S732.36,390.4,734.89,388.78ZM663.75,231c-2.55-2.05-4-4.08-5.14-3.91-1.53.23-2.82,2.14-4.22,3.32,1.23,1.4,2.26,3.58,3.74,3.94C659.32,234.66,661,232.75,663.75,231Zm-1.23-26.57.06-2c-1.48-.9-2.87-2.32-4.46-2.58-2.51-.42-3.68,1.29-3.74,3.8-.06,2.88,1.87,3.76,4.06,3.38C659.91,206.84,661.17,205.38,662.52,204.46Zm0,214.22.11-1.91c-1.43-1-2.77-2.53-4.32-2.81-2.44-.43-3.78,1.27-3.88,3.76-.13,2.78,1.68,3.88,4,3.52C659.81,421,661.1,419.57,662.47,418.68Zm-3.17-18.36-1.85-.14c-1,1.45-2.61,2.8-2.88,4.37a3,3,0,0,0,3.78,3.6,5.37,5.37,0,0,0,3.3-3.64C661.83,403.26,660.15,401.73,659.3,400.32Z" transform="translate(-500.51 -159.57)"/><path class="cls-1" d="M658.29,275.56H731c6.1,0,6.18.09,6.19,6,0,8.4-.19,16.81.08,25.2.12,4-1.44,5.15-5.14,5.06-6.86-.17-13.72-.08-20.58,0-4.68,0-4.83.57-5.1,6.39-.18,4.08,1.59,5,5.23,4.93,6.43-.18,12.88-.05,19.32,0,6.12,0,6.16,0,6.19,6,0,8.26,0,16.52,0,24.78,0,5.28-.21,5.5-5.39,5.51q-22.68,0-45.37,0H585.59c-6,0-6,0-6-6.12,0-8.54.1-17.09-.06-25.63-.07-3.5,1.27-4.67,4.7-4.57,7.13.19,14.28-.07,21.42.12,4,.1,4.6-2.16,4.53-5.35s-.05-6-4.45-6c-7.14.08-14.29-.14-21.42.05-3.73.11-4.89-1.35-4.81-4.94.18-8.54,0-17.08.07-25.62,0-5.58.14-5.69,5.62-5.7Zm-.39,54.94h0c-21.85,0-43.7.12-65.55-.1-4.37-.05-5.73,1.42-5.41,5.53.25,3.21,0,6.44,0,9.67,0,6.1,0,6.11,6,6.12l99.17,0c10.93,0,21.85-.08,32.77.07,3.64.05,5.07-1.27,4.84-4.93a75.1,75.1,0,0,1,0-10.92c.33-4.19-1.12-5.59-5.44-5.55C702.16,330.6,680,330.5,657.9,330.5Zm.64-47.49v0c-22.13,0-44.26.1-66.38-.09-4.18,0-5.47,1.45-5.21,5.35.22,3.34.06,6.72.06,10.08,0,5.87,0,5.9,5.7,5.9H686.4c12.88,0,25.77-.05,38.65,0,3.32,0,4.92-1,4.67-4.63-.24-3.34,0-6.72,0-10.08,0-6.57-.05-6.62-6.45-6.62Zm-.39,40c12,0,24.08,0,36.12-.05,1.42,0,4-.54,4.05-1.12a24.65,24.65,0,0,0,0-8.61c-.16-.78-3.05-1.4-4.7-1.41-23.66-.09-47.32-.07-71-.07-4.54,0-4.8.5-4.94,6-.09,3.44.44,5.44,4.75,5.34C634.34,322.87,646.24,323.05,658.15,323Z" transform="translate(-500.51 -159.57)"/><path class="cls-1" d="M535,317.58c0,9.21-7.85,17.26-17,17.31a17.31,17.31,0,0,1-17.44-17.27A17.54,17.54,0,0,1,517.7,300C527,300,534.9,308,535,317.58Zm-26.79-.41c-.1,5.41,4.42,10.19,9.62,10.16,4.84,0,9.64-4.91,9.64-9.83A9.88,9.88,0,0,0,518.1,308,9.52,9.52,0,0,0,508.16,317.17Z" transform="translate(-500.51 -159.57)"/><path class="cls-1" d="M799,334.87a17.08,17.08,0,0,1-17.2-17.38c0-9.67,7.82-17.6,17.21-17.48a17.64,17.64,0,0,1,17.1,17.28A17.34,17.34,0,0,1,799,334.87Zm9.58-17.59a9.75,9.75,0,0,0-9.95-9.3,9.47,9.47,0,0,0-9.27,9.86c.15,5,4.59,9.43,9.42,9.47C803.92,327.35,808.61,322.54,808.54,317.28Z" transform="translate(-500.51 -159.57)"/><path class="cls-1" d="M559.41,433a17.39,17.39,0,0,1-17-17.61A17.18,17.18,0,0,1,560,398.88c9.81.17,17.52,7.9,17.28,17.34A17.47,17.47,0,0,1,559.41,433Zm.33-7.59a9.56,9.56,0,1,0-9.68-9.64A9.89,9.89,0,0,0,559.74,425.41Z" transform="translate(-500.51 -159.57)"/><path class="cls-1" d="M675.47,176.84a17.16,17.16,0,1,1-34.32.13A17.23,17.23,0,0,1,658,159.58,17.47,17.47,0,0,1,675.47,176.84ZM668,177c-.05-5-4.74-9.69-9.65-9.7a9.77,9.77,0,0,0,.15,19.53A10.23,10.23,0,0,0,668,177Z" transform="translate(-500.51 -159.57)"/><path class="cls-1" d="M577.27,219a17.59,17.59,0,0,1-17.46,17.32c-9.53,0-17.53-8-17.42-17.34a17.44,17.44,0,0,1,34.88,0Zm-17.35,9.44A9.54,9.54,0,0,0,569.6,219c-.12-5-4.92-9.69-9.85-9.65s-9.72,4.94-9.71,9.8A9.62,9.62,0,0,0,559.92,228.47Z" transform="translate(-500.51 -159.57)"/><path class="cls-1" d="M739.5,219a17,17,0,0,1,17-17c9.79,0,17.55,7.56,17.43,17.07A17.23,17.23,0,1,1,739.5,219Zm26.66,0a9.58,9.58,0,0,0-9.48-9.67c-5,.11-9.66,4.77-9.71,9.71-.06,5.33,4.44,9.48,10.15,9.38C762.58,228.34,766.19,224.58,766.16,219Z" transform="translate(-500.51 -159.57)"/><path class="cls-1" d="M675.44,458.31a17.13,17.13,0,1,1-16.94-17.69A17.12,17.12,0,0,1,675.44,458.31Zm-7.5-.37a9.68,9.68,0,0,0-9.63-9.48c-5.67.06-9.58,4.15-9.49,9.92a9.75,9.75,0,0,0,9.28,9.43C663.21,467.9,668,463.14,667.94,457.94Z" transform="translate(-500.51 -159.57)"/><path class="cls-1" d="M756.74,433a17.07,17.07,0,1,1-.29-34.13c10-.05,17.36,7,17.51,16.9A16.94,16.94,0,0,1,756.74,433Zm9.43-17.2a9.14,9.14,0,0,0-9.44-9.51,9.55,9.55,0,1,0,.07,19.09A9.14,9.14,0,0,0,766.17,415.81Z" transform="translate(-500.51 -159.57)"/><path class="cls-1" d="M602.3,256c-2.27,1.81-3.95,4.15-5.26,4-1.7-.25-3.09-2.52-4.61-3.93,1.5-1.39,2.89-3.67,4.55-3.89C598.33,252,600,254.23,602.3,256Z" transform="translate(-500.51 -159.57)"/><path class="cls-1" d="M602.38,379.19c-2.46,1.68-4.28,3.86-5.62,3.6-1.64-.33-2.87-2.69-4.29-4.17,1.52-1.23,3-3.39,4.54-3.4S600.06,377.36,602.38,379.19Z" transform="translate(-500.51 -159.57)"/><path class="cls-1" d="M575.1,317.46c.32,2.89-1.31,3.6-3.77,3.66-2.75.07-3.64-1.23-3.62-3.82s1.15-3.71,3.8-3.64S575.38,314.85,575.1,317.46Z" transform="translate(-500.51 -159.57)"/><path class="cls-1" d="M561.49,317.34c.22,3-1.26,3.86-3.83,3.79s-3.7-1.2-3.67-3.88,1.5-3.54,4-3.59C560.74,313.59,561.7,315,561.49,317.34Z" transform="translate(-500.51 -159.57)"/><path class="cls-1" d="M749,317.53c.32,2.93-1.36,3.55-3.82,3.59-2.77.05-3.62-1.3-3.58-3.86s1.27-3.63,3.88-3.58S749.24,315,749,317.53Z" transform="translate(-500.51 -159.57)"/><path class="cls-1" d="M772.17,321.07c-2.43.06-3.89-.74-3.9-3.58,0-3,1.52-3.8,4.17-3.82s3.35,1.32,3.4,3.64C775.89,319.9,775,321.33,772.17,321.07Z" transform="translate(-500.51 -159.57)"/><path class="cls-1" d="M593,246.2c-2.37,2-4,4.34-5.3,4.19-1.7-.2-3.16-2.42-4.72-3.76,1.31-1.42,2.57-3.93,3.93-4C588.56,242.57,590.33,244.54,593,246.2Z" transform="translate(-500.51 -159.57)"/><path class="cls-1" d="M572,237.08c2.47-1.9,4.16-4.16,5.5-4,1.67.24,3,2.5,4.55,3.89-1.37,1.39-2.73,3.88-4.12,3.9C576.24,240.92,574.54,238.84,572,237.08Z" transform="translate(-500.51 -159.57)"/><path class="cls-1" d="M662.54,430.26c-.53,3.44-1.43,5-4.21,4.95-2.42-.06-3.93-.85-4-3.67-.07-3,1.55-4.26,4.11-3.84C659.91,427.94,661.18,429.37,662.54,430.26Z" transform="translate(-500.51 -159.57)"/><path class="cls-1" d="M729.35,252.35c-1.87-2.57-4-4.21-4-5.9,0-1.35,2.42-3.85,3.77-3.85s4.07,2.3,4.09,3.62C733.22,247.93,731.17,249.66,729.35,252.35Z" transform="translate(-500.51 -159.57)"/><path class="cls-1" d="M593.08,388.36c-2.54,1.86-4.16,4-5.68,3.89s-3-2.29-4.5-3.56c1.33-1.44,2.63-4,4-4C588.62,384.61,590.39,386.63,593.08,388.36Z" transform="translate(-500.51 -159.57)"/><path class="cls-1" d="M743.75,399c-1.91,1-3.78,2.63-5.75,2.77-1.07.07-3.21-2.38-3.24-3.72s2.16-4,3.06-3.86c2.1.3,4,1.92,6,3Z" transform="translate(-500.51 -159.57)"/><path class="cls-1" d="M739,231.3c1.73,2.6,3.8,4.35,3.7,6s-2.56,2.78-4,4.15c-1.36-1.56-3.58-3-3.8-4.71C734.77,235.35,737.08,233.7,739,231.3Z" transform="translate(-500.51 -159.57)"/><path class="cls-1" d="M573.14,398.15c3.85-5.95,5.47-5.93,9-.1C578.72,403.58,577.3,403.63,573.14,398.15Z" transform="translate(-500.51 -159.57)"/><path class="cls-1" d="M548.86,318.77c-1.55.78-3,2-4.66,2.24-2.54.33-3.66-1.33-3.59-3.89.08-2.74,1.71-3.91,4-3.34,1.58.38,2.9,1.85,4.33,2.83Z" transform="translate(-500.51 -159.57)"/><path class="cls-1" d="M762.51,317.33c.21,2.81-1.35,3.75-3.8,3.79s-3.81-1.11-3.8-3.76,1.26-3.76,3.82-3.71S762.69,314.7,762.51,317.33Z" transform="translate(-500.51 -159.57)"/><path class="cls-1" d="M718.58,260.94c-1-1.91-2.65-3.8-2.67-5.72,0-1.12,2.54-3.1,4-3.18,1.23-.06,3.78,2.29,3.63,3.22-.35,2.06-2,3.89-3.17,5.82Z" transform="translate(-500.51 -159.57)"/><path class="cls-1" d="M662.51,218.21c-1.36.9-2.64,2.35-4.12,2.59-2.69.45-4-1.13-4-4s2.09-3.68,4.22-3.27c1.45.27,2.65,1.84,4,2.83Z" transform="translate(-500.51 -159.57)"/><path class="cls-1" d="M719.29,373.46c2,2.27,4.35,3.72,4.4,5.24s-2.28,3.93-3.68,4-3.9-2.11-4.12-3.58S717.71,375.92,719.29,373.46Z" transform="translate(-500.51 -159.57)"/><path class="cls-1" d="M734.89,388.78c-2.53,1.62-4.29,3.63-5.77,3.45s-2.68-2.58-4-4c1.47-1.3,2.93-3.59,4.41-3.6S732.55,386.85,734.89,388.78Z" transform="translate(-500.51 -159.57)"/><path class="cls-1" d="M663.75,231c-2.71,1.72-4.43,3.63-5.62,3.35-1.48-.36-2.51-2.54-3.74-3.94,1.4-1.18,2.69-3.09,4.22-3.32C659.74,227,661.2,229,663.75,231Z" transform="translate(-500.51 -159.57)"/><path class="cls-1" d="M662.52,204.46c-1.35.92-2.61,2.38-4.08,2.64-2.19.38-4.12-.5-4.06-3.38.06-2.51,1.23-4.22,3.74-3.8,1.59.26,3,1.68,4.46,2.58Z" transform="translate(-500.51 -159.57)"/><path class="cls-1" d="M662.47,418.68c-1.37.89-2.66,2.32-4.14,2.56-2.27.36-4.08-.74-4-3.52.1-2.49,1.44-4.19,3.88-3.76,1.55.28,2.89,1.83,4.32,2.81Z" transform="translate(-500.51 -159.57)"/><path class="cls-1" d="M659.3,400.32c.85,1.41,2.53,2.94,2.35,4.19a5.37,5.37,0,0,1-3.3,3.64,3,3,0,0,1-3.78-3.6c.27-1.57,1.87-2.92,2.88-4.37Z" transform="translate(-500.51 -159.57)"/><path class="cls-2" d="M657.9,330.5c22.13,0,44.26.1,66.39-.09,4.32,0,5.77,1.36,5.44,5.55a75.1,75.1,0,0,0,0,10.92c.23,3.66-1.2,5-4.84,4.93-10.92-.15-21.84-.07-32.77-.07l-99.17,0c-5.93,0-5.94,0-6-6.12,0-3.23.2-6.46,0-9.67-.32-4.11,1-5.58,5.41-5.53,21.85.22,43.7.1,65.55.1Zm-42,14.4c4.33,0,8.65,0,13,0,2.64,0,3.78-1.07,3.7-3.77s-1.09-3.8-3.78-3.78q-13.18.11-26.37,0c-2.78,0-3.62,1.27-3.66,3.83s1.07,3.79,3.74,3.74C606.93,344.85,611.4,344.91,615.86,344.9Zm67.66-2.4c-.5-3.38-1-5.16-4-5.13-2.7,0-4.09,1-4.12,3.95s1.59,3.87,3.92,3.49C680.81,344.57,682.13,343.3,683.52,342.5Zm15.79,3.07c1-1.32,2.39-2.52,2.72-4,.5-2.19-.2-4.19-3.15-4.21-2.59,0-4.25.76-4.3,3.78C694.52,344,695.91,344.89,699.31,345.57Zm22.2-4.32c.15-2.49-.87-3.91-3.58-3.86-2.45,0-3.86,1-4,3.66s1.21,3.74,3.69,3.82S721.65,344,721.51,341.25Z" transform="translate(-500.51 -159.57)"/><path class="cls-2" d="M658.54,283h64.7c6.4,0,6.46.05,6.45,6.62,0,3.36-.21,6.74,0,10.08.25,3.59-1.35,4.65-4.67,4.63-12.88-.1-25.77,0-38.65,0H592.71c-5.72,0-5.72,0-5.7-5.9,0-3.36.16-6.74-.06-10.08-.26-3.9,1-5.39,5.21-5.35,22.12.19,44.25.09,66.38.09Zm-43,14.4v0c4.47,0,9,0,13.42,0,2.44,0,3.57-1,3.55-3.54s-.86-3.94-3.65-3.92q-13.21.09-26.43,0c-2.76,0-3.66,1.25-3.7,3.83,0,2.74,1.17,3.74,3.8,3.68C606.88,297.34,611.22,297.41,615.56,297.41Zm87.16-2.47.15-2c-1.39-1-2.67-2.57-4.2-2.88-2.58-.52-4.08.88-4.08,3.79s1.73,3.8,4,3.45C700.05,297.05,701.34,295.76,702.72,294.94Zm-24.25,3.19c3.88-.59,4.49-2.29,4.45-4.73s-1.06-3.53-3.54-3.5c-2.78,0-4.43,1.32-3.8,4C675.94,295.48,677.47,296.74,678.47,298.13Zm39.44-8.19c-2.59,0-3.94,1.06-4,3.75s1.52,3.67,4,3.71,3.65-1,3.64-3.52S720.67,289.78,717.91,289.94Z" transform="translate(-500.51 -159.57)"/><path class="cls-2" d="M658.15,323c-11.91,0-23.81-.17-35.71.11-4.31.1-4.84-1.9-4.75-5.34.14-5.53.4-6,4.94-6,23.67,0,47.33,0,71,.07,1.65,0,4.54.63,4.7,1.41a24.65,24.65,0,0,1,0,8.61c-.09.58-2.63,1.11-4.05,1.12C682.23,323.08,670.19,323,658.15,323Z" transform="translate(-500.51 -159.57)"/><path class="cls-2" d="M508.16,317.17A9.52,9.52,0,0,1,518.1,308a9.88,9.88,0,0,1,9.32,9.55c0,4.92-4.8,9.81-9.64,9.83C512.58,327.36,508.06,322.58,508.16,317.17Z" transform="translate(-500.51 -159.57)"/><path class="cls-2" d="M808.54,317.28c.07,5.26-4.62,10.07-9.8,10-4.83,0-9.27-4.5-9.42-9.47a9.47,9.47,0,0,1,9.27-9.86A9.75,9.75,0,0,1,808.54,317.28Z" transform="translate(-500.51 -159.57)"/><path class="cls-2" d="M559.74,425.41a9.56,9.56,0,1,1,.13-19.12,9.56,9.56,0,1,1-.13,19.12Z" transform="translate(-500.51 -159.57)"/><path class="cls-2" d="M668,177a10.23,10.23,0,0,1-9.5,9.83,9.77,9.77,0,0,1-.15-19.53C663.24,167.28,667.93,172,668,177Z" transform="translate(-500.51 -159.57)"/><path class="cls-2" d="M559.92,228.47a9.62,9.62,0,0,1-9.88-9.33c0-4.86,4.85-9.77,9.71-9.8s9.73,4.68,9.85,9.65A9.54,9.54,0,0,1,559.92,228.47Z" transform="translate(-500.51 -159.57)"/><path class="cls-2" d="M766.16,219c0,5.56-3.58,9.32-9,9.42-5.71.1-10.21-4.05-10.15-9.38,0-4.94,4.71-9.6,9.71-9.71A9.58,9.58,0,0,1,766.16,219Z" transform="translate(-500.51 -159.57)"/><path class="cls-2" d="M667.94,457.94c0,5.2-4.73,10-9.84,9.87a9.75,9.75,0,0,1-9.28-9.43c-.09-5.77,3.82-9.86,9.49-9.92A9.68,9.68,0,0,1,667.94,457.94Z" transform="translate(-500.51 -159.57)"/><path class="cls-2" d="M766.17,415.81a9.14,9.14,0,0,1-9.37,9.58,9.55,9.55,0,1,1-.07-19.09A9.14,9.14,0,0,1,766.17,415.81Z" transform="translate(-500.51 -159.57)"/><path class="cls-1" d="M615.86,344.91c-4.46,0-8.93-.06-13.39,0-2.67.05-3.78-1.06-3.74-3.74s.88-3.86,3.66-3.83q13.18.13,26.37,0c2.69,0,3.71,1.18,3.78,3.78s-1.06,3.81-3.7,3.77C624.51,344.85,620.19,344.9,615.86,344.91Z" transform="translate(-500.51 -159.57)"/><path class="cls-1" d="M683.52,342.5c-1.39.8-2.71,2.07-4.19,2.31-2.33.38-4-.57-3.92-3.49s1.42-3.92,4.12-3.95C682.48,337.34,683,339.12,683.52,342.5Z" transform="translate(-500.51 -159.57)"/><path class="cls-1" d="M699.31,345.57c-3.4-.68-4.79-1.62-4.73-4.41,0-3,1.71-3.79,4.3-3.78,3,0,3.65,2,3.15,4.21C701.7,343.05,700.26,344.25,699.31,345.57Z" transform="translate(-500.51 -159.57)"/><path class="cls-1" d="M721.51,341.25c.14,2.79-1.41,3.7-3.89,3.62s-3.84-1.09-3.69-3.82,1.55-3.62,4-3.66C720.64,337.34,721.66,338.76,721.51,341.25Z" transform="translate(-500.51 -159.57)"/><path class="cls-1" d="M615.56,297.41c-4.34,0-8.68-.07-13,0-2.63.06-3.85-.94-3.8-3.68,0-2.58.94-3.86,3.7-3.83q13.21.12,26.43,0c2.79,0,3.62,1.4,3.65,3.92s-1.11,3.56-3.55,3.54c-4.47,0-9,0-13.42,0Z" transform="translate(-500.51 -159.57)"/><path class="cls-1" d="M702.72,294.94c-1.38.82-2.67,2.11-4.14,2.35-2.26.35-4-.57-4-3.45s1.5-4.31,4.08-3.79c1.53.31,2.81,1.88,4.2,2.88Z" transform="translate(-500.51 -159.57)"/><path class="cls-1" d="M678.47,298.13c-1-1.39-2.53-2.65-2.89-4.19-.63-2.72,1-4,3.8-4,2.48,0,3.5,1.08,3.54,3.5S682.35,297.54,678.47,298.13Z" transform="translate(-500.51 -159.57)"/><path class="cls-1" d="M717.91,289.94c2.76-.16,3.6,1.45,3.6,3.94s-1.24,3.56-3.64,3.52-4-.9-4-3.71S715.32,289.9,717.91,289.94Z" transform="translate(-500.51 -159.57)"/></g></svg>