<svg id="Layer_1" data-name="Layer 1" xmlns="http://www.w3.org/2000/svg" viewBox="0 0 1839.22 343.65"><defs><style>.cls-1{fill:#fff;}</style></defs><path class="cls-1" d="M1800.78,274.48a96.55,96.55,0,0,1-34.88,10.58,312.75,312.75,0,0,1-32.52,2q-28.2,0-49.36-15.28T1662.9,221.2q0-32.91,19.2-47t49-18.81a46.59,46.59,0,0,0,9.41-1.17,123.27,123.27,0,0,1,12.53-2q34.49-4.71,34.48-20.38,0-11.75-12.14-15.28A80.54,80.54,0,0,0,1753,113a57.51,57.51,0,0,0-19.59,3.13c-5.75,2.1-5.93,4.24-11.23,7.66-11,7.11-54,7-54,7,2.08-16.19,9.58-32.4,22.12-42.86q21.15-18,60.33-18,43.88,0,65.82,14.89,22.73,15.67,22.73,43.88V200q0,31.35-11.37,49T1800.78,274.48Zm-12.54-96.38q-11,5.51-30.56,10.19l-18,3.92q-14.1,3.93-20.37,10.19-5.49,8.63-5.48,17.23,0,11.76,7,18.81,7.05,6.28,20.37,6.27,21.93,0,34.48-12.54t12.53-34.48V178.11ZM1543.51,287V177.32q0-30.56,9-51.32t24.69-33.31a97.13,97.13,0,0,1,34.87-17.24A155.28,155.28,0,0,1,1653.2,70H1661v38a17.69,17.69,0,0,1-17.7,17.7H1643q-22.74,0-33.7,11t-11,34.48v80.52A35.45,35.45,0,0,1,1562.9,287Zm-52-68.17,39.57-3.92c-5.75,21.94-17.11,42.59-33.3,54.07q-24.3,18-61.12,18-44.65,0-69.73-29-25-28.18-25-80.68,0-50.13,24.29-78.36,25.07-29,69.74-29,47,0,72.87,28.21,25.07,29,25.08,80.71v8.62a13.45,13.45,0,0,1-.79,5.48H1397.51q.78,24.3,11.76,36.05,10.17,12.54,30.56,12.53,13.31,0,22.72-5.48a11,11,0,0,0,4.31-2.74l4.31-4.31c.51-1.57,2.47-3.65,5.88-6.27s8.22-3.92,14.49-3.92Zm-94-61.12h79.93q-1.57-21.15-11-31.34-10.2-11-29-11-17.25,0-28.21,11T1397.51,157.73ZM1156.17,343.65h-17.74V164.21q0-55.65,32.12-75.22a131.48,131.48,0,0,1,69.74-19.59,123.46,123.46,0,0,1,40,6.66q19.61,6.64,31.34,21.55,22.74,29,22.73,79.14,0,49.37-22.73,79.14-23.51,30.56-60.33,30.56-19.58,0-34.48-7.84a74.57,74.57,0,0,1-25.07-24.29v53.79a35.54,35.54,0,0,1-35.54,35.54h0ZM1281,179.1q0-31.35-11.76-47.8t-33.69-16.45q-21.16,0-32.91,16.45-11,16.45-11,47.8,0,28.2,11.75,44.66,12.54,15.68,33.7,15.67,20.37,0,32.12-16.45Q1281,207.29,1281,179.1ZM944.81,214.92s40.55,0,51,8.22c5.16,4.06,6.69,9.29,14,14.51q11.76,7.83,31.35,7.83,14.1,0,24.29-5.48,9.39-5.48,9.4-14.89,0-14.1-32.91-21.16-14.1-2.35-21.16-4.7Q979.25,189.08,965.15,175q-15.69-14.1-15.67-37.61,0-29.77,22.72-49.37,23.5-18,61.12-18,40.73,0,65,18c15.15,13.07,23.89,33,24.94,53.87L1089,138.92q-14.89,0-22.72-13.32-3.15-3.12-6.27-6.26-9.4-7.07-25.86-7.06-15.68,0-23.51,4.71-7,4.7-7,14.1,0,11.85,36.35,20.19c2.62.6,5.23,1.28,7.81,2.05q2.38.72,4.82,1.27c1.7.38,28.31,8.35,46.74,16.08A49.63,49.63,0,0,1,1129.78,216v.47q0,34.49-25.08,53.28Q1081.2,287,1034.18,287q-44.66,0-66.6-18-22.74-18-22.73-52.5v-1.6Zm-45.18,3.92,39.18-3.92c-5.75,21.94-16.72,42.59-32.91,54.07q-24.3,18-61.12,18-44.65,0-69.74-29Q750,229.78,750,177.28q0-50.13,24.29-78.36,25.07-29,69.74-29,47,0,72.87,28.21c9.41,11.5,16.06,28.19,20.25,43.33,0,0-42,1.66-53.65-5.54-5-3.06-6.3-7-8.91-9.58q-10.2-11-29-11-17.25,0-28.21,11Q803.24,142,803.24,178.05T817.35,229q10.17,12.54,30.56,12.53,13.3,0,22.72-5.48a11,11,0,0,0,4.31-2.74l4.31-4.31a34.41,34.41,0,0,1,6.26-6.27q4.71-3.91,14.11-3.92ZM582.56,264.3q-16.45-14.12-23.51-38a174.86,174.86,0,0,1-7-49.75,157.75,157.75,0,0,1,5.85-42.33q5.86-21.15,18.41-35.26,20.37-23.5,52.5-27.81t58,5.09Q716.59,88,730.69,117,744,142.84,744,177.32q0,25.08-5.49,43.1T724.43,251q-18.81,25.86-47.8,32.12a106.53,106.53,0,0,1-52.11,1.18q-26.26-5.88-41.92-20Zm37.61-137.91q-16.45,18-14.89,53.67t13.32,49.76q4.71,6.28,16.46,10.58a37.41,37.41,0,0,0,23.9.78q12.13-3.52,21.55-17.63t10.18-45.45q0-28.2-9-42.31t-20.76-18a38.08,38.08,0,0,0-23.51-.39q-11.76,3.52-17.24,9ZM491.9,12.77h18a35.38,35.38,0,0,1,35.37,35.38V192.21q0,55.65-32.12,75.22A131.48,131.48,0,0,1,443.41,287a123.46,123.46,0,0,1-40-6.66q-19.61-6.64-31.35-21.55-22.72-29-22.72-79.14,0-49.36,22.72-79.14Q395.57,70,432.4,70q19.58,0,34.47,7.84a74.36,74.36,0,0,1,25,24.29ZM402.61,177.32q0,31.35,11.75,47.8t33.7,16.45q21.15,0,32.91-16.45,11-16.45,11-47.8,0-28.2-11.76-44.66Q467.67,117,446.52,117q-20.38,0-32.13,16.45-11.75,15.69-11.75,43.88ZM115,286.32a115,115,0,0,1,0-230h66.31V105H115a66.32,66.32,0,1,0,66.31,66.33h0v-66.4H230v66.32a115.13,115.13,0,0,1-115,115ZM230,80.67h56.27m0,0A24.34,24.34,0,0,0,262,56.29H230v48.63H261.9a24.33,24.33,0,0,0,24.37-24.29h0ZM205.65,56.32V0M230,24.35a24.34,24.34,0,0,0-48.68,0v32H230Z" transform="translate(0 0)"/></svg>