<svg id="Layer_1" data-name="Layer 1" xmlns="http://www.w3.org/2000/svg" viewBox="0 0 319.68 319.12"><defs><style>.cls-1{fill:#1d88f5;}.cls-2{fill:#fff;}</style></defs><g id="_7Up8jD.tif" data-name="7Up8jD.tif"><path class="cls-1" d="M559.22,560.35V277.23H874.15c1.58,4.27,4.53,8.54,4.54,12.82q.4,131.57.19,263.12c0,10.77-2.21,13-13.23,13-24.25.05-48.51.59-72.73-.21-13.32-.43-23.54,3.4-34.87,11-39.23,26.23-38.32,25.51-78.49.25-2.92-1.83-5.23-4.72-8.26-6.25-4-2-8.48-4.49-12.79-4.54-28.76-.4-57.55,0-86.31-.47C567.84,565.83,563.54,562.29,559.22,560.35Zm308.66-5v-226H570.23V555.17h84.84c-1.47-2-2.32-3.27-3.26-4.45-16-20.34-27.07-43.19-29-69-1.93-25.19-1.22-50.58-1.13-75.89,0-1.67,4.52-4.7,7-4.78,31.53-1,60-10.7,85.87-28.64,2.08-1.45,6.86-1.52,8.91-.1,25.87,18,54.29,28,85.84,28.44,5.89.09,7.78,2.24,7.68,8.1-.32,18.12-.12,36.25-.13,54.38,0,32-10.11,60.62-29.43,86.06-1.34,1.77-2.49,3.68-4.1,6.07ZM631.59,411.48c0,20-1.21,39.2.23,58.23,4.06,53.92,31.34,92.1,80.81,114,3.59,1.59,9.38,1.83,12.6,0,13.53-7.75,27.83-15,39.39-25.2,45-39.71,44.78-92.82,41.32-147-30.47-1.87-58.57-10.62-84-27.61-1.44-1-4.76-.7-6.31.32C690.42,400.88,662.59,409.6,631.59,411.48ZM868,288.45H570.14V318.2H868Z" transform="translate(-559.22 -277.23)"/><path class="cls-1" d="M631.42,357q-23.94,0-47.88,0c-4.13,0-9.07-.14-8.21-5.7.32-2.08,5.16-4.92,8-4.95q48.29-.53,96.56,0c2.81,0,5.59,3.29,8.38,5.05-2.71,1.86-5.37,5.25-8.14,5.34C663.89,357.22,647.65,357,631.42,357Z" transform="translate(-559.22 -277.23)"/><path class="cls-1" d="M806.65,346.09h47.89c4.11,0,9.1-.08,8.31,5.54-.3,2.11-5.13,5.07-7.93,5.1q-48.28.54-96.58,0c-2.84,0-7.82-3.07-8-5.1-.56-5.3,4.21-5.58,8.44-5.56C774.72,346.12,790.68,346.09,806.65,346.09Z" transform="translate(-559.22 -277.23)"/><path class="cls-1" d="M610.36,366.8c9.55,0,19.14-.41,28.65.26,2.77.19,5.33,3.46,8,5.32-2.57,1.73-5.1,4.9-7.71,5-18.83.43-37.69.46-56.53,0-2.65-.07-5.21-3.57-7.81-5.49,2.78-1.68,5.47-4.6,8.35-4.8C592.28,366.4,601.33,366.8,610.36,366.8Z" transform="translate(-559.22 -277.23)"/><path class="cls-1" d="M827.66,366.8c9.3,0,18.62-.36,27.88.23,2.64.16,6.89,2.68,7.32,4.75,1,5-3.36,5.77-7.33,5.78-18.86,0-37.72.24-56.57-.25-2.64-.07-5.19-3.65-7.79-5.6,2.61-1.64,5.13-4.52,7.82-4.69C808.52,366.45,818.1,366.8,827.66,366.8Z" transform="translate(-559.22 -277.23)"/><path class="cls-1" d="M717.17,416.32c20.8.06,35.72,14.17,36.27,33.91.29,10.59,2.28,19.66,7.67,29.15,11,19.46,4.59,44-13.26,57.89a46.85,46.85,0,0,1-59.6-1.73c-17.32-15-22-39.82-9.6-59.25,4.84-7.59,5.81-14.86,5.85-23.16.1-18.38,9.76-31.41,26.06-35.71A51.74,51.74,0,0,1,717.17,416.32ZM756,500.65c.29-20.46-15.95-37.45-36.19-37.86s-37.44,16.13-37.72,36.32A37,37,0,1,0,756,500.65Zm-13.21-42.1c1.68-13.25-1.37-23.19-12.4-29.16-9-4.87-18.1-4-26.21,2.31-8.61,6.67-10.64,15.7-8.56,26.75C711.49,450.69,726.9,450.9,742.81,458.55Z" transform="translate(-559.22 -277.23)"/><path class="cls-1" d="M806.22,297.88c15.42,0,30.85,0,46.28,0,4,0,8.36.48,7.57,5.46-.33,2.06-4.75,4.9-7.33,4.93q-47.07.51-94.15,0c-2.53,0-6.87-3-7.16-5.08-.73-5.12,3.82-5.28,7.71-5.28Z" transform="translate(-559.22 -277.23)"/><path class="cls-1" d="M719.31,478.3c11.13.16,18.15,10.79,14.28,21.32A61.52,61.52,0,0,0,730.67,511c-1.11,6.85-5.13,10.71-11.79,10.64-6.24-.07-10.16-3.78-11.32-10.25a79.74,79.74,0,0,0-3.09-12.12C700.82,488.75,708.24,478.13,719.31,478.3Zm-.12,35.24c2.42-7.7,4.9-13.62,5.81-19.76.25-1.71-4.15-4.11-6.41-6.2-1.89,2.42-5.63,5.11-5.33,7.21C714.1,500.5,716.64,506,719.19,513.54Z" transform="translate(-559.22 -277.23)"/><path class="cls-2" d="M719.19,513.54c-2.55-7.58-5.09-13-5.93-18.75-.3-2.1,3.44-4.79,5.33-7.21,2.26,2.09,6.66,4.49,6.41,6.2C724.09,499.92,721.61,505.84,719.19,513.54Z" transform="translate(-559.22 -277.23)"/><circle class="cls-1" cx="48.52" cy="25.94" r="6.94"/><circle class="cls-1" cx="24.44" cy="25.94" r="6.94"/><circle class="cls-1" cx="71.9" cy="25.94" r="6.94"/></g></svg>